<?xml version="1.0" standalone="no"?>
<!DOCTYPE svg PUBLIC "-//W3C//DTD SVG 1.1//EN" "http://www.w3.org/Graphics/SVG/1.1/DTD/svg11.dtd">
<svg xmlns="http://www.w3.org/2000/svg"><metadata>This SVG WebFont was generated by YouWorkForThem.
Copyright  2014 by Mattox Shuler. All rights reserved.</metadata><defs><font horiz-adv-x="1308" id="ywftsvg"><font-face ascent="1638" bbox="-307 -596 1946 1925" cap-height="1434" descent="-410" font-family="" font-stretch="normal" font-weight="400" panose-1="0 0 5 0 0 0 0 0 0 0" underline-position="0" underline-thickness="0" unicode-range="U+0020-FB02" units-per-em="2048" x-height="1106"/><missing-glyph horiz-adv-x="1269"/><glyph d="M694 1372h-157q-76 0 -110 -33.5t-34 -109.5v-123h322v-119h-320v-987h-139v987h-195v119h197v111q0 279 279 278h157v-123zM1081 1274h-159v180h159v-180zM1071 1106v-1106h-139v1106h139z" glyph-name="uniFB01" horiz-adv-x="1243" unicode="fi"/><glyph d="M694 1372h-157q-76 0 -110 -33.5t-34 -109.5v-123h322v-119h-320v-987h-139v987h-195v119h197v111q0 279 279 278h157v-123zM932 1495h139v-1495h-139v1495z" glyph-name="uniFB02" horiz-adv-x="1243" unicode="fl"/><glyph glyph-name=".notdef" horiz-adv-x="1269"/><glyph glyph-name="glyph1" horiz-adv-x="0"/><glyph glyph-name="glyph2" horiz-adv-x="681"/><glyph glyph-name="space" horiz-adv-x="491" unicode=" "/><glyph d="M352 406h-98l-41 1028h180zM397 0h-188v205h188v-205z" glyph-name="exclam" horiz-adv-x="606" unicode="!"/><glyph d="M334 1434l-53 -467h-93l-53 467h199zM641 1434l-53 -467h-92l-54 467h199z" glyph-name="quotedbl" horiz-adv-x="776" unicode="&quot;"/><glyph d="M1319 557v-123h-283l-125 -434h-137l125 434h-414l-125 -434h-137l125 434h-254v123h289l111 377h-261v123h295l109 377h137l-108 -377h413l109 377h137l-108 -377h241v-123h-276l-111 -377h248zM1042 934h-413l-109 -377h414z" glyph-name="numbersign" horiz-adv-x="1554" unicode="#"/><glyph d="M848 0h-146v-188h-131v188h-145q-150 0 -218.5 84t-68.5 291v57h148v-67q0 -137 31.5 -183.5t115.5 -46.5h141v539l-133 31q-78 18 -119.5 34.5t-110.5 70t-69 256.5q0 204 69 286t222 82h137v188h131v-188h119q150 0 218.5 -82t68.5 -281v-55h-147v65q0 129 -33 173 t-115 44h-115v-510l142 -32q78 -18 118.5 -34.5t110.5 -73t70 -268.5t-69 -296t-222 -84zM575 1298h-133q-82 0 -114.5 -44t-32.5 -174t38 -173t173 -73l69 -17v481zM698 135h142q84 0 115.5 46.5t31.5 186.5t-33.5 182t-171.5 75l-84 20v-510z" glyph-name="dollar" horiz-adv-x="1277" unicode="$"/><glyph d="M250 1434h153q76 0 112 -35t36 -113v-270q0 -78 -36 -113t-112 -35h-153q-78 0 -113 35t-35 113v270q0 78 35 113t113 35zM1100 1434l-778 -1434h-123l778 1434h123zM440 1020v262q0 29 -10 39t-39 10h-129q-29 0 -39 -10t-10 -39v-262q0 -29 10 -39t39 -10h129 q29 0 39 10t10 39zM895 565h154q78 0 112.5 -34.5t34.5 -112.5v-271q0 -78 -35 -112.5t-112 -34.5h-154q-76 0 -111.5 35t-35.5 112v271q0 78 35.5 112.5t111.5 34.5zM1085 152v262q0 29 -10 39t-39 10h-129q-29 0 -39 -10.5t-10 -38.5v-262q0 -29 10.5 -39.5t38.5 -10.5 h129q29 0 39 10.5t10 39.5z" glyph-name="percent" horiz-adv-x="1298" unicode="%"/><glyph d="M1114 672v-385q0 -287 -287 -287h-391q-152 0 -219 88t-67 284t35.5 269.5t115.5 95.5q-66 25 -100.5 94t-34.5 251t68.5 267t218.5 85h344q287 0 286 -287v-129h-147v133q0 80 -34 113.5t-114 33.5h-327q-84 0 -116 -49t-32 -197t32 -197.5t116 -49.5h819v-133h-166z M967 672h-523q-84 0 -115.5 -52.5t-31.5 -216t31.5 -216t115.5 -52.5h375q80 0 114 34t34 114v389z" glyph-name="ampersand" horiz-adv-x="1347" unicode="&amp;"/><glyph d="M334 1434l-53 -467h-93l-53 467h199z" glyph-name="quotesingle" horiz-adv-x="468" unicode="'"/><glyph d="M571 1430h-79q-80 0 -114 -34t-34 -114v-1216q0 -80 34 -114t114 -34h79v-135h-88q-287 0 -286 287v1208q0 287 286 287h88v-135z" glyph-name="parenleft" horiz-adv-x="706" unicode="("/><glyph d="M135 1565h88q287 0 287 -287v-1208q0 -287 -287 -287h-88v135h80q80 0 113.5 34t33.5 114v1216q0 80 -33.5 114t-113.5 34h-80v135z" glyph-name="parenright" horiz-adv-x="706" unicode=")"/><glyph d="M668 840l-103 -74l-153 260l-154 -262l-102 76l200 227l-295 68l39 120l277 -122l-29 301h127l-29 -301l277 120l39 -120l-295 -66z" glyph-name="asterisk" horiz-adv-x="823" unicode="*"/><glyph d="M459 373v323h-324v123h324v324h123v-324h323v-123h-323v-323h-123z" glyph-name="plus" horiz-adv-x="1040" unicode="+"/><glyph d="M328 209v-152q0 -51 -12.5 -80.5t-63.5 -111.5l-74 -117h-82l129 252h-94v209h197z" glyph-name="comma" horiz-adv-x="458" unicode=","/><glyph d="M737 745v-139h-606v139h606z" glyph-name="hyphen" horiz-adv-x="868" unicode="-"/><glyph d="M328 0h-197v209h197v-209z" glyph-name="period" horiz-adv-x="458" unicode="."/><glyph d="M905 1577l-725 -1720h-135l725 1720h135z" glyph-name="slash" horiz-adv-x="950" unicode="/"/><glyph d="M858 0h-412q-287 0 -286 287v860q0 287 286 287h412q287 0 287 -287v-860q0 -287 -287 -287zM307 1151v-868q0 -80 34 -114t114 -34h395q80 0 113.5 34t33.5 114v868q0 80 -33.5 113.5t-113.5 33.5h-395q-80 0 -114 -33.5t-34 -113.5z" glyph-name="zero" horiz-adv-x="1304" unicode="0"/><glyph d="M391 0v1282l-289 -104v137l310 119h127v-1434h-148z" glyph-name="one" horiz-adv-x="759" unicode="1"/><glyph d="M311 1014h-147v133q0 287 287 287h344q287 0 286 -287v-176q0 -76 -37.5 -130.5t-257.5 -164.5l-348 -174q-80 -41 -113.5 -68.5t-33.5 -71.5v-227h794v-135h-942v362q0 75 36 127.5t106.5 89.5t152.5 78l348 174q80 39 114 68t34 72v180q0 80 -34 113.5t-114 33.5h-327 q-80 0 -114 -33.5t-34 -113.5v-137z" glyph-name="two" horiz-adv-x="1220" unicode="2"/><glyph d="M270 408v-23q0 -152 32 -201t116 -49h385q82 0 114.5 57.5t32.5 211t-32.5 211t-114.5 57.5h-381v133h364q84 0 116 49t32 198t-32 197.5t-116 48.5h-352q-84 0 -115.5 -49t-31.5 -200v-23h-148v18q0 217 67.5 303.5t219.5 86.5h369q152 0 219 -85t67 -269t-33.5 -250 t-101.5 -93q80 -23 116 -94t36 -269t-67.5 -286t-219.5 -88h-401q-152 0 -219.5 86t-67.5 303v19h147z" glyph-name="three" horiz-adv-x="1232" unicode="3"/><glyph d="M1194 369h-215v-369h-148v369h-737l-20 114l737 951h168v-930h215v-135zM831 504v749l-583 -749h583z" glyph-name="four" horiz-adv-x="1267" unicode="4"/><glyph d="M315 1298v-522q88 80 177.5 120t264.5 40t257 -68.5t82 -218.5v-362q0 -287 -287 -287h-367q-287 0 -286 287v121h147v-125q0 -80 34 -114t114 -34h350q80 0 113.5 34t33.5 114v370q0 82 -44 115t-177 33t-226 -33t-186 -96l-147 47v715h907v-136h-760z" glyph-name="five" horiz-adv-x="1239" unicode="5"/><glyph d="M936 1032v119q0 147 -148 147h-333q-147 0 -148 -147v-416q88 80 179.5 120t271.5 40t263 -68.5t83 -218.5v-321q0 -287 -287 -287h-371q-287 0 -286 287v860q0 287 286 287h351q287 0 286 -287v-115h-147zM307 283q0 -80 34 -114t114 -34h354q80 0 113.5 34t33.5 114 v329q0 82 -45 115t-184 33t-233.5 -33t-186.5 -96v-348z" glyph-name="six" horiz-adv-x="1259" unicode="6"/><glyph d="M74 1298v136h975v-99l-627 -1335h-154l615 1298h-809z" glyph-name="seven" horiz-adv-x="1126" unicode="7"/><glyph d="M1126 374q0 -198 -67.5 -286t-218.5 -88h-418q-152 0 -219.5 88t-67.5 286t36 269.5t116 93.5q-68 27 -101.5 93t-33.5 250t67.5 269t218.5 85h385q152 0 219.5 -85t67.5 -269t-33.5 -250t-101.5 -93q80 -23 115.5 -94t35.5 -269zM815 1298h-369q-84 0 -115.5 -49 t-31.5 -197t31.5 -197.5t115.5 -49.5h369q84 0 116 49t32 198t-32 197.5t-116 48.5zM430 135h401q82 0 115 57.5t33 211t-33 211t-115 57.5h-401q-82 0 -114.5 -57.5t-32.5 -211t32.5 -211t114.5 -57.5z" glyph-name="eight" horiz-adv-x="1261" unicode="8"/><glyph d="M324 401v-118q0 -80 33.5 -114t113.5 -34h334q80 0 113.5 34t33.5 114v432q-88 -80 -179 -120t-271 -40t-263 68.5t-83 218.5v305q0 287 286 287h371q287 0 287 -287v-860q0 -287 -287 -287h-350q-287 0 -287 287v114h148zM952 1151q0 80 -33.5 113.5t-113.5 33.5h-354 q-80 0 -114 -33.5t-34 -113.5v-313q0 -82 45 -115t184 -33t233.5 33t186.5 96v332z" glyph-name="nine" horiz-adv-x="1259" unicode="9"/><glyph d="M328 897h-197v209h197v-209zM328 0h-197v209h197v-209z" glyph-name="colon" horiz-adv-x="458" unicode=":"/><glyph d="M328 897h-197v209h197v-209zM328 209v-152q0 -51 -12.5 -80.5t-63.5 -111.5l-74 -117h-82l129 252h-94v209h197z" glyph-name="semicolon" horiz-adv-x="458" unicode=";"/><glyph d="M127 795l762 483v-139l-660 -416l660 -414v-139l-762 481v144z" glyph-name="less" horiz-adv-x="1040" unicode="&lt;"/><glyph d="M905 987v-133h-770v133h770zM905 637v-133h-770v133h770z" glyph-name="equal" horiz-adv-x="1040" unicode="="/><glyph d="M152 1139v139l761 -483v-144l-761 -481v139l659 414z" glyph-name="greater" horiz-adv-x="1040" unicode=">"/><glyph d="M348 1434h408q287 0 286 -287v-121q0 -102 -69.5 -168.5t-224.5 -142.5l-54 -27q-84 -41 -115.5 -70.5t-31.5 -64.5v-168h-148v164q0 98 63.5 154.5t231.5 140.5l54 26q88 43 117.5 74t29.5 82v125q0 80 -34 113.5t-113 33.5h-392q-80 0 -113.5 -33.5t-33.5 -113.5v-145 h-148v141q0 287 287 287zM547 223v-223h-148v223h148z" glyph-name="question" horiz-adv-x="1140" unicode="?"/><glyph d="M479 1434h940q287 0 287 -287v-758q0 -287 -287 -287h-176l-41 136q-150 -156 -358 -156q-158 0 -231.5 69.5t-73.5 217.5v368q0 147 73.5 217t231.5 70q209 0 358 -156l41 148h82v-815h86q98 0 143 45t45 143v758q0 98 -45 143t-143 45h-924q-98 0 -143 -45t-45 -143 v-1188q0 -98 45 -143t143 -45h1039v-99h-1047q-287 0 -286 287v1188q-1 287 286 287zM846 913q-104 0 -144 -37.5t-40 -125.5v-394q0 -88 39.5 -125.5t144 -37.5t185.5 29.5t171 103.5v454q-90 74 -171 103.5t-185 29.5z" glyph-name="at" horiz-adv-x="1898" unicode="@"/><glyph d="M969 430h-602l-154 -430h-152l527 1434h168l526 -1434h-160zM922 565l-254 707l-252 -707h506z" glyph-name="A" horiz-adv-x="1343" unicode="A"/><glyph d="M197 1434h688q154 0 222.5 -85t68.5 -298q0 -145 -35 -213t-105 -97q82 -27 119 -98.5t37 -267.5t-68.5 -285.5t-222.5 -89.5h-704v1434zM344 809h533q84 0 115.5 48t31.5 195.5t-31.5 196.5t-115.5 49h-533v-489zM344 135h549q84 0 115.5 52.5t31.5 218t-31.5 218 t-115.5 52.5h-549v-541z" glyph-name="B" horiz-adv-x="1327" unicode="B"/><glyph d="M872 0h-426q-287 0 -286 287v860q0 287 286 287h426q287 0 287 -287v-156h-147v160q0 80 -34 113.5t-114 33.5h-409q-80 0 -114 -33.5t-34 -113.5v-868q0 -80 34 -114t114 -34h409q80 0 114 34t34 114v159h147v-155q0 -287 -287 -287z" glyph-name="C" horiz-adv-x="1294" unicode="C"/><glyph d="M197 1434h714q287 0 287 -287v-860q0 -287 -287 -287h-714v1434zM344 135h559q80 0 114 34t34 114v868q0 80 -34 113.5t-114 33.5h-559v-1163z" glyph-name="D" horiz-adv-x="1357" unicode="D"/><glyph d="M197 1434h907v-136h-760v-497h641v-135h-641v-531h760v-135h-907v1434z" glyph-name="E" horiz-adv-x="1216" unicode="E"/><glyph d="M197 0v1434h907v-136h-760v-514h641v-135h-641v-649h-147z" glyph-name="F" horiz-adv-x="1181" unicode="F"/><glyph d="M1026 1012v139q0 80 -34 113.5t-113 33.5h-424q-80 0 -114 -33.5t-34 -113.5v-868q0 -80 34 -114t114 -34h424q80 0 113.5 34t33.5 114v325h-375v135h523v-456q0 -287 -287 -287h-441q-287 0 -286 287v860q0 287 286 287h441q287 0 287 -287v-135h-148z" glyph-name="G" horiz-adv-x="1329" unicode="G"/><glyph d="M197 0v1434h147v-633h733v633h148v-1434h-148v666h-733v-666h-147z" glyph-name="H" horiz-adv-x="1421" unicode="H"/><glyph d="M197 0v1434h147v-1434h-147z" glyph-name="I" horiz-adv-x="540" unicode="I"/><glyph d="M987 1434v-1147q0 -287 -287 -287h-331q-287 0 -287 287v229h147v-233q0 -80 34 -114t114 -34h315q80 0 114 34t34 114v1151h147z" glyph-name="J" horiz-adv-x="1161" unicode="J"/><glyph d="M344 0h-147v1434h147v-842l737 842h183l-516 -578l561 -856h-172l-486 748l-307 -345v-403z" glyph-name="K" horiz-adv-x="1300" unicode="K"/><glyph d="M197 1434h147v-1299h709v-135h-856v1434z" glyph-name="L" horiz-adv-x="1134" unicode="L"/><glyph d="M1522 1434v-1434h-144v1214l-454 -1007h-133l-455 1007v-1214h-139v1434h184l477 -1049l479 1049h185z" glyph-name="M" horiz-adv-x="1718" unicode="M"/><glyph d="M1114 1434h139v-1434h-151l-766 1231v-1231h-139v1434h163l754 -1213v1213z" glyph-name="N" horiz-adv-x="1449" unicode="N"/><glyph d="M899 0h-453q-287 0 -286 287v860q0 287 286 287h453q287 0 287 -287v-860q0 -287 -287 -287zM307 1151v-868q0 -80 34 -114t114 -34h436q80 0 113.5 34t33.5 114v868q0 80 -33.5 113.5t-113.5 33.5h-436q-80 0 -114 -33.5t-34 -113.5z" glyph-name="O" horiz-adv-x="1345" unicode="O"/><glyph d="M197 1434h700q139 0 213 -74t74 -213v-303q0 -139 -74 -213t-213 -74h-553v-557h-147v1434zM344 692h545q147 0 147 148v311q0 147 -147 147h-545v-606z" glyph-name="P" horiz-adv-x="1294" unicode="P"/><glyph d="M446 1434h453q287 0 287 -287v-860q0 -287 -287 -287h-151v-258h-148v258h-154q-287 0 -286 287v860q-1 287 286 287zM1038 283v868q0 80 -33.5 113.5t-113.5 33.5h-436q-80 0 -114 -33.5t-34 -113.5v-868q0 -80 34 -114t114 -34h436q80 0 113.5 34t33.5 114z" glyph-name="Q" horiz-adv-x="1345" unicode="Q"/><glyph d="M344 592v-592h-147v1434h698q287 0 287 -287v-268q0 -281 -275 -287l320 -592h-164l-320 592h-399zM344 727h543q80 0 113.5 34t33.5 113v277q0 80 -33.5 113.5t-113.5 33.5h-543v-571z" glyph-name="R" horiz-adv-x="1343" unicode="R"/><glyph d="M967 1016v143q0 80 -34 114t-114 34h-381q-80 0 -113.5 -34t-33.5 -114v-145q0 -78 33.5 -113t113.5 -53l402 -92q74 -16 116 -32q40 -16 88 -47q90 -61 91 -214v-176q0 -287 -287 -287h-422q-287 0 -287 287v145h148v-158q0 -80 33.5 -113.5t113.5 -33.5h406 q80 0 113.5 34t33.5 113v172q0 78 -33.5 113t-113.5 53l-402 93q-74 15 -116 31q-40 16 -88 48q-90 60 -91 213v150q0 287 287 287h397q287 0 287 -287v-131h-147z" glyph-name="S" horiz-adv-x="1273" unicode="S"/><glyph d="M1094 1298h-441v-1298h-147v1298h-440v136h1028v-136z" glyph-name="T" horiz-adv-x="1159" unicode="T"/><glyph d="M1178 1434v-1147q0 -287 -287 -287h-430q-287 0 -287 287v1147h148v-1151q0 -80 33.5 -114t113.5 -34h414q80 0 113.5 34t33.5 114v1151h148z" glyph-name="U" horiz-adv-x="1351" unicode="U"/><glyph d="M1217 1434l-494 -1434h-168l-494 1434h160l418 -1272l426 1272h152z" glyph-name="V" horiz-adv-x="1277" unicode="V"/><glyph d="M1423 0h-153l-332 1202l-332 -1202h-157l-388 1434h160l305 -1246l344 1246h136l344 -1246l305 1246h155z" glyph-name="W" horiz-adv-x="1871" unicode="W"/><glyph d="M623 612l-410 -612h-156l488 731l-471 703h166l395 -586l393 586h156l-471 -703l487 -731h-166z" glyph-name="X" horiz-adv-x="1257" unicode="X"/><glyph d="M690 0h-147v508l-510 926h160l425 -777l426 777h156l-510 -926v-508z" glyph-name="Y" horiz-adv-x="1232" unicode="Y"/><glyph d="M156 1300v134h944v-109l-805 -1192h801v-133h-975v109l805 1191h-770z" glyph-name="Z" horiz-adv-x="1220" unicode="Z"/><glyph d="M344 1430v-1512h244v-135h-391v1782h391v-135h-244z" glyph-name="bracketleft" horiz-adv-x="722" unicode="["/><glyph d="M905 -143h-135l-725 1720h135z" glyph-name="backslash" horiz-adv-x="950" unicode="\"/><glyph d="M135 1565h391v-1782h-391v135h244v1512h-244v135z" glyph-name="bracketright" horiz-adv-x="722" unicode="]"/><glyph d="M436 1434h168l256 -586h-131l-209 495l-209 -495h-131z" glyph-name="asciicircum" horiz-adv-x="1040" unicode="^"/><glyph d="M1126 -90v-115h-1114v115h1114z" glyph-name="underscore" horiz-adv-x="1138" unicode="_"/><glyph d="M698 1569l-264 295h187l184 -295h-107z" glyph-name="grave" horiz-adv-x="1234" unicode="`"/><glyph d="M432 1106h262q279 0 279 -279v-827h-139v152q-72 -84 -161 -122t-248 -38t-233.5 76.5t-74.5 246.5t64.5 235.5t234.5 83.5t418 28v178q0 78 -34 110.5t-110 32.5h-254q-76 0 -109.5 -32.5t-33.5 -110.5v-31h-139v18q-1 279 278 279zM256 316q0 -114 39 -157.5t155 -43.5 t199.5 30.5t184.5 102.5v317l-435 -49q-82 -10 -112.5 -48t-30.5 -152z" glyph-name="a" horiz-adv-x="1122" unicode="a"/><glyph d="M705 1114q178 0 254.5 -67.5t76.5 -210.5v-566q0 -143 -76.5 -210.5t-254.5 -67.5q-100 0 -177 23.5t-119 51t-110 85.5v-152h-139v1495h139v-541q68 57 110 85t119 51.5t177 23.5zM897 262v582q0 80 -41 111.5t-165 31.5t-208 -30.5t-184 -102.5v-602 q100 -72 184 -102.5t208 -30.5t165 31.5t41 111.5z" glyph-name="b" horiz-adv-x="1171" unicode="b"/><glyph d="M414 1106h278q279 0 279 -279v-73h-140v82q0 78 -32.5 110.5t-110.5 32.5h-270q-78 0 -111 -33t-33 -110v-566q0 -78 33 -110.5t111 -32.5h270q78 0 110.5 33t32.5 110v82h140v-73q0 -279 -279 -279h-278q-279 0 -279 279v548q0 279 279 279z" glyph-name="c" horiz-adv-x="1081" unicode="c"/><glyph d="M467 1114q100 0 177 -23.5t119 -51t109 -85.5v541h140v-1495h-140v152q-68 -57 -109.5 -85t-118.5 -51.5t-177 -23.5q-178 0 -255 67.5t-77 210.5v566q0 143 77 210.5t255 67.5zM274 844v-582q0 -80 41 -111.5t165 -31.5t208 30.5t184 102.5v602q-100 72 -184 102.5 t-208 30.5t-165 -31.5t-41 -111.5z" glyph-name="d" horiz-adv-x="1171" unicode="d"/><glyph d="M274 524v-258q0 -78 33 -110.5t111 -32.5h282q78 0 111 32.5t33 110.5v80h139v-67q0 -279 -278 -279h-291q-279 0 -279 279v548q0 279 279 279h291q279 0 278 -279v-303h-709zM700 983h-282q-78 0 -111 -32.5t-33 -110.5v-201h570v201q0 78 -33 110.5t-111 32.5z" glyph-name="e" horiz-adv-x="1110" unicode="e"/><glyph d="M694 1372h-157q-76 0 -110 -33.5t-34 -109.5v-123h322v-119h-320v-987h-139v987h-195v119h197v111q0 279 279 278h157v-123z" glyph-name="f" horiz-adv-x="759" unicode="f"/><glyph d="M1012 1106v-1155q0 -279 -279 -279h-479v123h475q78 0 110.5 33t32.5 111v241q-68 -57 -109.5 -84.5t-118.5 -51.5t-177 -24q-178 0 -255 68t-77 211v537q0 143 77 210.5t255 67.5q100 0 177 -23.5t119 -51t109 -85.5v152h140zM274 844v-553q0 -80 41 -112t165 -32 t208 31t184 103v573q-100 72 -184 102.5t-208 30.5t-165 -31.5t-41 -111.5z" glyph-name="g" horiz-adv-x="1171" unicode="g"/><glyph d="M299 1495v-539q98 84 176.5 122t228.5 38t225 -67.5t75 -210.5v-838h-140v846q0 78 -38 110.5t-150 32.5t-194.5 -30.5t-182.5 -102.5v-856h-139v1495h139z" glyph-name="h" horiz-adv-x="1153" unicode="h"/><glyph d="M322 1274h-160v180h160v-180zM311 1106v-1106h-139v1106h139z" glyph-name="i" horiz-adv-x="483" unicode="i"/><glyph d="M322 1274h-160v180h160v-180zM311 1106v-1147q0 -125 -66.5 -187.5t-211.5 -90.5l-103 -21v100l99 35q70 25 106.5 58.5t36.5 95.5v1157h139z" glyph-name="j" horiz-adv-x="483" unicode="j"/><glyph d="M299 0h-139v1495h139v-1003l512 614h170l-360 -418l393 -688h-156l-323 588l-236 -273v-315z" glyph-name="k" horiz-adv-x="1050" unicode="k"/><glyph d="M172 1495h139v-1495h-139v1495z" glyph-name="l" horiz-adv-x="483" unicode="l"/><glyph d="M1350 1118q276 0 276 -278v-840h-139v848q0 78 -35.5 110.5t-133.5 32.5t-177.5 -31.5t-177.5 -101.5v-858h-140v848q0 78 -35.5 110.5t-133.5 32.5t-176.5 -30.5t-178.5 -102.5v-858h-139v1106h139v-148q98 84 174 122t195 38q233 0 282 -170q90 84 177 127t223 43z" glyph-name="m" horiz-adv-x="1775" unicode="m"/><glyph d="M299 1106v-150q98 84 177 122q78 38 228 38t225 -67.5t75 -210.5v-838h-140v846q0 78 -38 110.5t-150 32.5t-194.5 -30.5t-182.5 -102.5v-856h-139v1106h139z" glyph-name="n" horiz-adv-x="1153" unicode="n"/><glyph d="M414 1106h305q279 0 278 -279v-548q0 -279 -278 -279h-305q-279 0 -279 279v548q0 279 279 279zM858 270v566q0 78 -33.5 110.5t-109.5 32.5h-297q-78 0 -111 -33t-33 -110v-566q0 -78 33 -110.5t111 -32.5h297q76 0 109.5 32.5t33.5 110.5z" glyph-name="o" horiz-adv-x="1132" unicode="o"/><glyph d="M705 1114q178 0 254.5 -67.5t76.5 -210.5v-566q0 -143 -76.5 -210.5t-254.5 -67.5q-100 0 -177 23.5t-119 51t-110 85.5v-480h-139v1434h139v-152q68 57 110 85t119 51.5t177 23.5zM897 262v582q0 80 -41 111.5t-165 31.5t-208 -30.5t-184 -102.5v-602 q100 -72 184 -102.5t208 -30.5t165 31.5t41 111.5z" glyph-name="p" horiz-adv-x="1171" unicode="p"/><glyph d="M467 1114q100 0 177 -23.5t119 -51t109 -85.5v152h140v-1434h-140v480q-68 -57 -109.5 -85t-118.5 -51.5t-177 -23.5q-178 0 -255 67.5t-77 210.5v566q0 143 77 210.5t255 67.5zM274 844v-582q0 -80 41 -111.5t165 -31.5t208 30.5t184 102.5v602q-100 72 -184 102.5 t-208 30.5t-165 -31.5t-41 -111.5z" glyph-name="q" horiz-adv-x="1171" unicode="q"/><glyph d="M729 971h-78q-96 0 -174 -33t-178 -96v-842h-139v1106h139v-160q66 53 102.5 81t106.5 53.5t143 25.5h78v-135z" glyph-name="r" horiz-adv-x="786" unicode="r"/><glyph d="M784 791v24q0 90 -32.5 127t-110.5 37h-238q-78 0 -110.5 -38t-32.5 -125t28.5 -114.5t98.5 -39.5l322 -54q125 -20 181 -82t56 -218t-67.5 -232t-210.5 -76h-283q-143 0 -211 75t-68 244v15h136v-23q0 -104 32.5 -144t110.5 -40h279q80 0 111.5 41t31.5 141t-27.5 131 t-99.5 43l-322 54q-125 20 -181 79.5t-56 201.5t67.5 215t210.5 73h242q143 0 211 -71.5t68 -227.5v-16h-136z" glyph-name="s" horiz-adv-x="1052" unicode="s"/><glyph d="M360 983v-713q0 -78 33 -110.5t111 -32.5h133v-127h-137q-279 0 -279 279v704h-164v123h164v266h139v-266h277v-123h-277z" glyph-name="t" horiz-adv-x="706" unicode="t"/><glyph d="M854 0v150q-98 -84 -177 -122t-229 -38t-224 67.5t-74 210.5v838h139v-846q0 -78 38.5 -110.5t150.5 -32.5t194 30.5t182 102.5v856h139v-1106h-139z" glyph-name="u" horiz-adv-x="1153" unicode="u"/><glyph d="M979 1106l-381 -1106h-176l-381 1106h145l326 -989l326 989h141z" glyph-name="v" horiz-adv-x="1019" unicode="v"/><glyph d="M1186 0h-154l-266 922l-266 -922h-158l-301 1106h143l238 -965l276 965h136l276 -965l238 965h139z" glyph-name="w" horiz-adv-x="1527" unicode="w"/><glyph d="M504 459l-318 -459h-147l391 559l-387 547h156l313 -449l309 449h148l-383 -549l395 -557h-156z" glyph-name="x" horiz-adv-x="1021" unicode="x"/><glyph d="M991 1106l-538 -1434h-131l120 328l-401 1106h143l328 -932l340 932h139z" glyph-name="y" horiz-adv-x="1032" unicode="y"/><glyph d="M111 987v119h745v-86l-604 -901h596v-119h-766v86l602 901h-573z" glyph-name="z" horiz-adv-x="937" unicode="z"/><glyph d="M444 1282v-375q0 -156 -147 -219q147 -61 147 -219v-403q0 -80 34 -114t114 -34h80v-135h-88q-287 0 -287 287v399q0 156 -147 156h-35v127h35q147 0 147 155v371q0 287 287 287h88v-135h-80q-80 0 -114 -34t-34 -114z" glyph-name="braceleft" horiz-adv-x="806" unicode="{"/><glyph d="M250 1571h119v-2013h-119v2013z" glyph-name="bar" horiz-adv-x="618" unicode="|"/><glyph d="M362 907v375q0 80 -33.5 114t-113.5 34h-80v135h88q287 0 287 -287v-371q0 -156 147 -155h35v-127h-35q-147 0 -147 -156v-399q0 -287 -287 -287h-88v135h80q80 0 113.5 34t33.5 114v403q0 158 148 219q-148 63 -148 219z" glyph-name="braceright" horiz-adv-x="806" unicode="}"/><glyph d="M287 563h-119v51q0 88 53 140.5t128 52.5t135.5 -36t108.5 -71.5t93 -35.5q68 0 68 67v60h118v-52q0 -88 -53 -140t-130 -52t-138.5 35.5t-108.5 71.5t-88 36q-68 0 -67 -67v-60z" glyph-name="asciitilde" horiz-adv-x="1040" unicode="~"/><glyph d="M209 1106h188v-205h-188v205zM254 700h98l41 -1028h-180z" glyph-name="exclamdown" horiz-adv-x="606" unicode="¡"/><glyph d="M844 889v69q0 80 -34 114t-114 34h-73v-766h73q80 0 114 34t34 113v70h147v-65q0 -287 -286 -287h-78v-205h-119v205h-78q-287 0 -287 287v462q0 287 287 287h78v193h119v-193h78q287 0 286 -287v-65h-147zM512 1106h-74q-80 0 -113.5 -34t-33.5 -114v-471 q0 -80 33.5 -113.5t113.5 -33.5h74v766z" glyph-name="cent" horiz-adv-x="1130" unicode="¢"/><glyph d="M1145 135v-135h-1067v135h127q23 0 32 9.5t9 31.5v471h-168v131h168v369q0 287 286 287h318q287 0 287 -287v-156h-148v160q0 80 -33.5 113.5t-113.5 33.5h-301q-80 0 -114 -33.5t-34 -113.5v-373h443v-131h-443v-512h752z" glyph-name="sterling" horiz-adv-x="1275" unicode="£"/><glyph d="M1024 897v-328q0 -100 -33 -163l150 -150l-92 -94l-152 151q-66 -31 -160 -30h-231q-96 0 -160 30l-151 -151l-93 94l150 150q-33 63 -33 163v328q0 94 31 160l-148 147l93 94l147 -147q63 33 164 33h231q100 0 164 -33l148 147l92 -94l-148 -147q31 -66 31 -160z M510 414h223q80 0 114 33.5t34 113.5v344q0 80 -34 114t-114 34h-223q-80 0 -114 -34t-34 -114v-344q0 -80 34 -113.5t114 -33.5z" glyph-name="currency" horiz-adv-x="1243" unicode="¤"/><glyph d="M1036 651v-127h-338l-8 -16v-107h346v-127h-346v-274h-147v274h-346v127h346v107l-8 16h-338v127h266l-430 783h160l425 -781l426 781h156l-430 -783h266z" glyph-name="yen" horiz-adv-x="1232" unicode="¥"/><glyph d="M250 1571h119v-791h-119v791zM369 -442h-119v790h119v-790z" glyph-name="brokenbar" horiz-adv-x="618" unicode="¦"/><glyph d="M815 1114v10q0 106 -32.5 146.5t-114.5 40.5h-234q-82 0 -114.5 -40.5t-32.5 -132.5t31.5 -126.5t95.5 -44.5l329 -54q119 -20 174.5 -84.5t55.5 -200.5t-23.5 -193.5t-68.5 -96.5q43 -33 60 -74t17 -133q0 -172 -69.5 -248t-216.5 -76h-262q-147 0 -217 76t-70 248v19 h131v-27q0 -111 32.5 -152t114.5 -41h275q82 0 114.5 41t32.5 135t-31.5 130t-95.5 47l-321 53q-121 20 -179.5 85t-58.5 203t21.5 196.5t70.5 94.5q-45 33 -61 72t-16 127q0 168 69.5 244t216.5 76h221q147 0 217 -74t70 -234v-12h-131zM838 602q0 102 -32 140t-95 49 l-344 57q-51 8 -73 -43t-22 -155t32 -142.5t95 -48.5l336 -56q57 -10 80 43.5t23 155.5z" glyph-name="section" horiz-adv-x="1095" unicode="§"/><glyph d="M569 1569h-176v213h176v-213zM918 1569h-177v213h177v-213z" glyph-name="dieresis" horiz-adv-x="1310" unicode="¨"/><glyph d="M479 1434h776q287 0 287 -287v-860q0 -287 -287 -287h-776q-287 0 -286 287v860q-1 287 286 287zM1436 287v860q0 98 -45 143t-144 45h-760q-98 0 -143 -45t-45 -143v-860q0 -98 45 -143.5t143 -45.5h760q98 0 143.5 45.5t45.5 143.5zM758 1180h217q117 0 171 -54.5 t54 -171.5v-94h-131v107q0 53 -20.5 73.5t-73.5 20.5h-217q-53 0 -73.5 -20.5t-20.5 -73.5v-500q0 -53 20.5 -73.5t73.5 -20.5h217q53 0 73.5 20.5t20.5 73.5v106h131v-94q0 -117 -54 -171t-171 -54h-217q-117 0 -171.5 54t-54.5 171v475q0 117 54.5 171.5t171.5 54.5z" glyph-name="copyright" horiz-adv-x="1734" unicode="©"/><glyph d="M123 1249q0 185 184 185h174q184 0 185 -185v-534h-107v96q-101 -102 -231 -102t-178 50t-48 166t48 162t158 58t251 16v92q0 86 -86 86h-156q-86 0 -86 -86v-24h-108v20zM209 932q0 -72 23.5 -98.5t86.5 -26.5q133 0 240 84v196l-264 -28q-47 -4 -66.5 -29.5 t-19.5 -97.5zM666 578v-99h-547v99h547z" glyph-name="ordfeminine" horiz-adv-x="768" unicode="ª"/><glyph d="M467 1145l-289 -426l289 -424h-148l-262 383v82l262 385h148zM774 1145l-289 -426l289 -424h-147l-262 383v82l262 385h147z" glyph-name="guillemotleft" horiz-adv-x="847" unicode="«"/><glyph d="M250 1434h348q131 0 131 -131v-476q0 -131 -131 -131h-348q-131 0 -131 131v476q0 131 131 131zM252 1380q-78 0 -78 -77v-476q0 -41 18.5 -59t59.5 -18h344q41 0 59.5 18t18.5 59v476q0 41 -18.5 59t-59.5 18h-344zM575 1204v-90q0 -88 -88 -88l99 -180h-60l-98 180 h-100v-180h-56v446h215q88 0 88 -88zM328 1079h155q23 0 30 7.5t7 29.5v86q0 23 -7 30t-30 7h-155v-160z" glyph-name="registered" horiz-adv-x="847" unicode="®"/><glyph d="M872 1692v-123h-524v123h524z" glyph-name="macron" horiz-adv-x="1220" unicode="¯"/><glyph d="M422 999h-205q-98 0 -98 99v237q0 98 98 99h205q98 0 98 -99v-237q0 -99 -98 -99zM422 1311q0 28 -29 28h-147q-29 0 -29 -28v-189q0 -16 6 -22t23 -6h147q29 0 29 28v189z" glyph-name="degree" horiz-adv-x="647" unicode="°"/><glyph d="M459 475v324h-324v123h324v323h123v-323h323v-123h-323v-324h-123zM135 373h770v-123h-770v123z" glyph-name="plusminus" horiz-adv-x="1040" unicode="±"/><glyph d="M201 1438h-119v37q0 100 42 142t142 42h162q100 0 142 -43t42 -141v-80q0 -59 -33.5 -86t-127.5 -62l-197 -71q-37 -12 -50.5 -22.5t-13.5 -29.5v-90h426v-112h-544v223q0 59 33.5 85.5t127.5 61.5l197 72q37 12 50.5 22.5t13.5 28.5v53q0 47 -15.5 62.5t-62.5 15.5h-137 q-47 0 -62.5 -15t-15.5 -63v-30z" glyph-name="uni00B2" horiz-adv-x="679" unicode="²"/><glyph d="M180 1139v-2q0 -66 14.5 -85.5t63.5 -19.5h156q49 0 63.5 19.5t14.5 88.5t-14.5 88t-63.5 19h-174v105h166q49 0 63 18.5t14 79.5t-14 79.5t-63 18.5h-140q-49 0 -63.5 -18.5t-14.5 -79.5v-8h-118v10q0 115 42 161t142 46h164q100 0 142 -46t42 -162t-76 -153 q84 -26 84 -154t-42 -175t-142 -47h-180q-100 0 -142.5 47t-42.5 168v2h119z" glyph-name="uni00B3" horiz-adv-x="686" unicode="³"/><glyph d="M537 1569h-107l184 295h187z" glyph-name="acute" horiz-adv-x="1222" unicode="´"/><glyph d="M1268 0h-148v1298h-147v-1298h-148v573h-409q-287 0 -287 287v287q0 287 287 287h852v-1434z" glyph-name="paragraph" horiz-adv-x="1464" unicode="¶"/><glyph d="M336 571h-197v209h197v-209z" glyph-name="periodcentered" horiz-adv-x="475" unicode="·"/><glyph d="M659 0v-102q0 -106 -37.5 -145.5t-142.5 -39.5h-119l-81 111h172q49 0 63 14.5t14 59.5v102h131z" glyph-name="cedilla" horiz-adv-x="1157" unicode="¸"/><glyph d="M205 922v614l-154 -49v102l176 70h97v-737h-119z" glyph-name="uni00B9" horiz-adv-x="438" unicode="¹"/><glyph d="M287 1434h200q184 0 185 -185v-350q0 -184 -185 -184h-200q-184 0 -185 184v350q1 185 185 185zM563 899v350q0 86 -86 86h-180q-86 0 -86 -86v-350q0 -86 86 -86h180q86 0 86 86zM655 578v-99h-536v99h536z" glyph-name="ordmasculine" horiz-adv-x="774" unicode="º"/><glyph d="M483 760v-82l-262 -383h-147l288 424l-288 426h147zM791 760v-82l-263 -383h-147l289 424l-289 426h147z" glyph-name="guillemotright" horiz-adv-x="847" unicode="»"/><glyph d="M205 696v615l-154 -49v102l176 70h97v-738h-119zM1032 1434l-782 -1434h-119l782 1434h119zM1296 162h-116v-162h-117v162h-395l-17 90l416 485h113v-469h116v-106zM1063 268v299l-268 -299h268z" glyph-name="onequarter" horiz-adv-x="1351" unicode="¼"/><glyph d="M205 696v615l-154 -49v102l176 70h97v-738h-119zM1032 1434l-782 -1434h-119l782 1434h119zM926 516h-119v37q0 100 42 142t142 42h162q100 0 142 -43t42 -141v-80q0 -59 -33.5 -86t-127.5 -61l-197 -72q-37 -12 -50.5 -22.5t-13.5 -28.5v-90h426v-113h-544v223 q0 59 33.5 86t127.5 62l197 71q37 12 50.5 22.5t13.5 29.5v53q0 47 -15.5 62.5t-62.5 15.5h-137q-47 0 -62.5 -15.5t-15.5 -62.5v-31z" glyph-name="onehalf" horiz-adv-x="1404" unicode="½"/><glyph d="M180 913v-2q0 -66 14.5 -85t63.5 -19h156q49 0 63.5 19.5t14.5 87.5t-14.5 88t-63.5 20h-174v104h166q49 0 63 18.5t14 80t-14 80t-63 18.5h-140q-49 0 -63.5 -18.5t-14.5 -79.5v-8h-118v10q0 115 42 161t142 46h164q100 0 142 -46t42 -162t-76 -153q84 -25 84 -154 t-42 -176t-142 -47h-180q-100 0 -142.5 47.5t-42.5 167.5v2h119zM1280 1434l-782 -1434h-119l782 1434h119zM1544 162h-117v-162h-116v162h-396l-16 90l416 485h112v-469h117v-106zM1311 268v299l-269 -299h269z" glyph-name="threequarters" horiz-adv-x="1599" unicode="¾"/><glyph d="M594 883v223h147v-223h-147zM793 -328h-408q-287 0 -287 287v121q0 102 70 168.5t225 142.5l53 27q84 41 116 70.5t32 64.5v168h147v-164q0 -98 -63.5 -154.5t-231.5 -140.5l-53 -26q-86 -43 -116.5 -74t-30.5 -82v-125q0 -80 33.5 -114t113.5 -34h391q80 0 114 34 t34 114v145h147v-141q1 -287 -286 -287z" glyph-name="questiondown" horiz-adv-x="1140" unicode="¿"/><glyph d="M680 1569l-264 295h186l184 -295h-106zM969 430h-602l-154 -430h-152l527 1434h168l526 -1434h-160zM922 565l-254 707l-252 -707h506z" glyph-name="Agrave" horiz-adv-x="1343" unicode="À"/><glyph d="M664 1569h-107l184 295h187zM969 430h-602l-154 -430h-152l527 1434h168l526 -1434h-160zM922 565l-254 707l-252 -707h506z" glyph-name="Aacute" horiz-adv-x="1343" unicode="Á"/><glyph d="M508 1569h-143l233 246h147l234 -246h-143l-164 168zM969 430h-602l-154 -430h-152l527 1434h168l526 -1434h-160zM922 565l-254 707l-252 -707h506z" glyph-name="Acircumflex" horiz-adv-x="1343" unicode="Â"/><glyph d="M459 1581h-111v43q0 84 52 134t128 50t157 -67.5t132 -67.5q68 0 68 68v51h110v-43q0 -84 -51 -134t-122 -50t-122 33.5t-92 67.5t-82 34q-68 0 -67 -68v-51zM969 430h-602l-154 -430h-152l527 1434h168l526 -1434h-160zM922 565l-254 707l-252 -707h506z" glyph-name="Atilde" horiz-adv-x="1343" unicode="Ã"/><glyph d="M586 1569h-176v213h176v-213zM934 1569h-176v213h176v-213zM969 430h-602l-154 -430h-152l527 1434h168l526 -1434h-160zM922 565l-254 707l-252 -707h506z" glyph-name="Adieresis" horiz-adv-x="1343" unicode="Ä"/><glyph d="M725 1569h-107q-66 0 -94 28.5t-28 94.5v77q0 66 28.5 94.5t93.5 28.5h107q66 0 94.5 -28.5t28.5 -94.5v-77q0 -66 -28.5 -94.5t-94.5 -28.5zM594 1786v-111q0 -20 20 -20h115q20 0 21 20v111q0 20 -21 20h-115q-20 0 -20 -20zM969 430h-602l-154 -430h-152l527 1434h168 l526 -1434h-160zM922 565l-254 707l-252 -707h506z" glyph-name="Aring" horiz-adv-x="1343" unicode="Å"/><glyph d="M1141 1298v-477h641v-135h-641v-551h760v-135h-908v430h-569l-236 -430h-163l792 1434h1084v-136h-760zM993 565v733h-94l-401 -733h495z" glyph-name="AE" horiz-adv-x="2013" unicode="Æ"/><glyph d="M1012 991v160q0 80 -34 113.5t-114 33.5h-409q-80 0 -114 -33.5t-34 -113.5v-868q0 -80 34 -114t114 -34h409q80 0 114 34t34 114v159h147v-155q0 -287 -287 -287h-116v-102q0 -106 -38 -145.5t-143 -39.5h-118l-82 111h172q49 0 63.5 14.5t14.5 59.5v102h-179 q-287 0 -286 287v860q0 287 286 287h426q287 0 287 -287v-156h-147z" glyph-name="Ccedilla" horiz-adv-x="1294" unicode="Ç"/><glyph d="M668 1569l-265 295h187l184 -295h-106zM197 1434h907v-136h-760v-497h641v-135h-641v-531h760v-135h-907v1434z" glyph-name="Egrave" horiz-adv-x="1216" unicode="È"/><glyph d="M651 1569h-106l184 295h186zM197 1434h907v-136h-760v-497h641v-135h-641v-531h760v-135h-907v1434z" glyph-name="Eacute" horiz-adv-x="1216" unicode="É"/><glyph d="M496 1569h-144l234 246h147l234 -246h-144l-164 168zM197 1434h907v-136h-760v-497h641v-135h-641v-531h760v-135h-907v1434z" glyph-name="Ecircumflex" horiz-adv-x="1216" unicode="Ê"/><glyph d="M573 1569h-176v213h176v-213zM922 1569h-177v213h177v-213zM197 1434h907v-136h-760v-497h641v-135h-641v-531h760v-135h-907v1434z" glyph-name="Edieresis" horiz-adv-x="1216" unicode="Ë"/><glyph d="M279 1569l-265 295h187l184 -295h-106zM197 0v1434h147v-1434h-147z" glyph-name="Igrave" horiz-adv-x="540" unicode="Ì"/><glyph d="M262 1569h-106l184 295h186zM197 0v1434h147v-1434h-147z" glyph-name="Iacute" horiz-adv-x="540" unicode="Í"/><glyph d="M106 1569h-143l234 246h147l234 -246h-144l-164 168zM197 0v1434h147v-1434h-147z" glyph-name="Icircumflex" horiz-adv-x="540" unicode="Î"/><glyph d="M184 1569h-176v213h176v-213zM532 1569h-176v213h176v-213zM197 0v1434h147v-1434h-147z" glyph-name="Idieresis" horiz-adv-x="540" unicode="Ï"/><glyph d="M197 1434h714q287 0 287 -287v-860q0 -287 -287 -287h-714v657h-183v136h183v641zM1051 283v868q0 80 -34 113.5t-114 33.5h-559v-505h182v-136h-182v-522h559q80 0 114 34t34 114z" glyph-name="Eth" horiz-adv-x="1357" unicode="Ð"/><glyph d="M512 1581h-111v43q0 84 51.5 134t128.5 50t157.5 -67.5t131.5 -67.5q68 0 68 68v51h111v-43q0 -84 -51.5 -134t-122.5 -50t-122 33.5t-91.5 67.5t-81.5 34q-68 0 -68 -68v-51zM1114 1434h139v-1434h-151l-766 1231v-1231h-139v1434h163l754 -1213v1213z" glyph-name="Ntilde" horiz-adv-x="1449" unicode="Ñ"/><glyph d="M684 1569l-264 295h186l185 -295h-107zM899 0h-453q-287 0 -286 287v860q0 287 286 287h453q287 0 287 -287v-860q0 -287 -287 -287zM307 1151v-868q0 -80 34 -114t114 -34h436q80 0 113.5 34t33.5 114v868q0 80 -33.5 113.5t-113.5 33.5h-436q-80 0 -114 -33.5 t-34 -113.5z" glyph-name="Ograve" horiz-adv-x="1345" unicode="Ò"/><glyph d="M668 1569h-107l184 295h187zM899 0h-453q-287 0 -286 287v860q0 287 286 287h453q287 0 287 -287v-860q0 -287 -287 -287zM307 1151v-868q0 -80 34 -114t114 -34h436q80 0 113.5 34t33.5 114v868q0 80 -33.5 113.5t-113.5 33.5h-436q-80 0 -114 -33.5t-34 -113.5z" glyph-name="Oacute" horiz-adv-x="1345" unicode="Ó"/><glyph d="M512 1569h-143l233 246h148l233 -246h-143l-164 168zM899 0h-453q-287 0 -286 287v860q0 287 286 287h453q287 0 287 -287v-860q0 -287 -287 -287zM307 1151v-868q0 -80 34 -114t114 -34h436q80 0 113.5 34t33.5 114v868q0 80 -33.5 113.5t-113.5 33.5h-436 q-80 0 -114 -33.5t-34 -113.5z" glyph-name="Ocircumflex" horiz-adv-x="1345" unicode="Ô"/><glyph d="M463 1581h-111v43q0 84 52 134t128 50t157 -67.5t132 -67.5q68 0 68 68v51h110v-43q0 -84 -51 -134t-122 -50t-122 33.5t-92 67.5t-82 34q-68 0 -67 -68v-51zM899 0h-453q-287 0 -286 287v860q0 287 286 287h453q287 0 287 -287v-860q0 -287 -287 -287zM307 1151v-868 q0 -80 34 -114t114 -34h436q80 0 113.5 34t33.5 114v868q0 80 -33.5 113.5t-113.5 33.5h-436q-80 0 -114 -33.5t-34 -113.5z" glyph-name="Otilde" horiz-adv-x="1345" unicode="Õ"/><glyph d="M590 1569h-176v213h176v-213zM938 1569h-176v213h176v-213zM899 0h-453q-287 0 -286 287v860q0 287 286 287h453q287 0 287 -287v-860q0 -287 -287 -287zM307 1151v-868q0 -80 34 -114t114 -34h436q80 0 113.5 34t33.5 114v868q0 80 -33.5 113.5t-113.5 33.5h-436 q-80 0 -114 -33.5t-34 -113.5z" glyph-name="Odieresis" horiz-adv-x="1345" unicode="Ö"/><glyph d="M606 684l268 -268l-86 -86l-266 266l-268 -270l-86 86l268 270l-268 268l86 86l266 -266l268 270l86 -86z" glyph-name="multiply" horiz-adv-x="1040" unicode="×"/><glyph d="M1186 1147v-860q0 -287 -287 -287h-483l-56 -123h-135l68 152q-133 57 -133 258v860q0 287 286 287h476l55 122h135l-65 -147q139 -57 139 -262zM307 1151v-868q0 -90 45 -123l510 1138h-407q-80 0 -114 -33.5t-34 -113.5zM1038 283v868q0 94 -51 127l-512 -1143h416 q80 0 113.5 34t33.5 114z" glyph-name="Oslash" horiz-adv-x="1345" unicode="Ø"/><glyph d="M684 1569l-264 295h186l185 -295h-107zM1178 1434v-1147q0 -287 -287 -287h-430q-287 0 -287 287v1147h148v-1151q0 -80 33.5 -114t113.5 -34h414q80 0 113.5 34t33.5 114v1151h148z" glyph-name="Ugrave" horiz-adv-x="1351" unicode="Ù"/><glyph d="M668 1569h-107l184 295h187zM1178 1434v-1147q0 -287 -287 -287h-430q-287 0 -287 287v1147h148v-1151q0 -80 33.5 -114t113.5 -34h414q80 0 113.5 34t33.5 114v1151h148z" glyph-name="Uacute" horiz-adv-x="1351" unicode="Ú"/><glyph d="M512 1569h-143l233 246h148l233 -246h-143l-164 168zM1178 1434v-1147q0 -287 -287 -287h-430q-287 0 -287 287v1147h148v-1151q0 -80 33.5 -114t113.5 -34h414q80 0 113.5 34t33.5 114v1151h148z" glyph-name="Ucircumflex" horiz-adv-x="1351" unicode="Û"/><glyph d="M590 1569h-176v213h176v-213zM938 1569h-176v213h176v-213zM1178 1434v-1147q0 -287 -287 -287h-430q-287 0 -287 287v1147h148v-1151q0 -80 33.5 -114t113.5 -34h414q80 0 113.5 34t33.5 114v1151h148z" glyph-name="Udieresis" horiz-adv-x="1351" unicode="Ü"/><glyph d="M610 1569h-106l184 295h186zM690 0h-147v508l-510 926h160l425 -777l426 777h156l-510 -926v-508z" glyph-name="Yacute" horiz-adv-x="1232" unicode="Ý"/><glyph d="M344 1434v-258h553q139 0 213 -74t74 -213v-324q0 -139 -74 -212.5t-213 -73.5h-553v-279h-147v1434h147zM344 414h545q147 0 147 147v332q0 147 -147 147h-545v-626z" glyph-name="Thorn" horiz-adv-x="1294" unicode="Þ"/><glyph d="M1012 1132q0 -192 -33 -265.5t-115 -94.5q86 -16 125 -96t39 -288t-65.5 -298t-212.5 -90h-291v127h286q80 0 112 56.5t32 234.5t-31 234.5t-113 56.5h-245v122h229q80 0 111.5 53.5t31.5 215.5t-31.5 215t-111.5 53h-295q-76 0 -109.5 -34t-33.5 -109v-1225h-139v1217 q0 279 278 278h303q147 0 213 -85.5t66 -277.5z" glyph-name="germandbls" horiz-adv-x="1150" unicode="ß"/><glyph d="M588 1241l-264 295h186l184 -295h-106zM432 1106h262q279 0 279 -279v-827h-139v152q-72 -84 -161 -122t-248 -38t-233.5 76.5t-74.5 246.5t64.5 235.5t234.5 83.5t418 28v178q0 78 -34 110.5t-110 32.5h-254q-76 0 -109.5 -32.5t-33.5 -110.5v-31h-139v18 q-1 279 278 279zM256 316q0 -114 39 -157.5t155 -43.5t199.5 30.5t184.5 102.5v317l-435 -49q-82 -10 -112.5 -48t-30.5 -152z" glyph-name="agrave" horiz-adv-x="1122" unicode="à"/><glyph d="M571 1241h-106l184 295h187zM432 1106h262q279 0 279 -279v-827h-139v152q-72 -84 -161 -122t-248 -38t-233.5 76.5t-74.5 246.5t64.5 235.5t234.5 83.5t418 28v178q0 78 -34 110.5t-110 32.5h-254q-76 0 -109.5 -32.5t-33.5 -110.5v-31h-139v18q-1 279 278 279zM256 316 q0 -114 39 -157.5t155 -43.5t199.5 30.5t184.5 102.5v317l-435 -49q-82 -10 -112.5 -48t-30.5 -152z" glyph-name="aacute" horiz-adv-x="1122" unicode="á"/><glyph d="M416 1241h-144l234 246h147l234 -246h-144l-163 168zM432 1106h262q279 0 279 -279v-827h-139v152q-72 -84 -161 -122t-248 -38t-233.5 76.5t-74.5 246.5t64.5 235.5t234.5 83.5t418 28v178q0 78 -34 110.5t-110 32.5h-254q-76 0 -109.5 -32.5t-33.5 -110.5v-31h-139v18 q-1 279 278 279zM256 316q0 -114 39 -157.5t155 -43.5t199.5 30.5t184.5 102.5v317l-435 -49q-82 -10 -112.5 -48t-30.5 -152z" glyph-name="acircumflex" horiz-adv-x="1122" unicode="â"/><glyph d="M367 1253h-111v43q0 84 51 134.5t128 50.5t158 -67.5t132 -67.5q68 0 68 67v51h110v-43q0 -84 -51 -134t-122 -50t-122 34t-92 67.5t-82 33.5q-68 0 -67 -67v-52zM432 1106h262q279 0 279 -279v-827h-139v152q-72 -84 -161 -122t-248 -38t-233.5 76.5t-74.5 246.5 t64.5 235.5t234.5 83.5t418 28v178q0 78 -34 110.5t-110 32.5h-254q-76 0 -109.5 -32.5t-33.5 -110.5v-31h-139v18q-1 279 278 279zM256 316q0 -114 39 -157.5t155 -43.5t199.5 30.5t184.5 102.5v317l-435 -49q-82 -10 -112.5 -48t-30.5 -152z" glyph-name="atilde" horiz-adv-x="1122" unicode="ã"/><glyph d="M494 1241h-177v213h177v-213zM842 1241h-176v213h176v-213zM432 1106h262q279 0 279 -279v-827h-139v152q-72 -84 -161 -122t-248 -38t-233.5 76.5t-74.5 246.5t64.5 235.5t234.5 83.5t418 28v178q0 78 -34 110.5t-110 32.5h-254q-76 0 -109.5 -32.5t-33.5 -110.5v-31 h-139v18q-1 279 278 279zM256 316q0 -114 39 -157.5t155 -43.5t199.5 30.5t184.5 102.5v317l-435 -49q-82 -10 -112.5 -48t-30.5 -152z" glyph-name="adieresis" horiz-adv-x="1122" unicode="ä"/><glyph d="M633 1241h-107q-66 0 -94.5 28.5t-28.5 94.5v78q0 66 29 94.5t94 28.5h107q66 0 94.5 -29t28.5 -94v-78q0 -66 -28.5 -94.5t-94.5 -28.5zM637 1479h-115q-20 0 -20 -21v-110q0 -20 20 -21h115q20 0 20 21v110q0 21 -20 21zM432 1106h262q279 0 279 -279v-827h-139v152 q-72 -84 -161 -122t-248 -38t-233.5 76.5t-74.5 246.5t64.5 235.5t234.5 83.5t418 28v178q0 78 -34 110.5t-110 32.5h-254q-76 0 -109.5 -32.5t-33.5 -110.5v-31h-139v18q-1 279 278 279zM256 316q0 -114 39 -157.5t155 -43.5t199.5 30.5t184.5 102.5v317l-435 -49 q-82 -10 -112.5 -48t-30.5 -152z" glyph-name="aring" horiz-adv-x="1122" unicode="å"/><glyph d="M973 524v-258q0 -78 33.5 -110.5t109.5 -32.5h283q76 0 109.5 32.5t33.5 110.5v80h139v-67q0 -279 -278 -279h-291q-219 0 -264 166q-131 -174 -410 -174q-172 0 -246.5 76.5t-74.5 246.5t64.5 235.5t234.5 83.5t418 28v178q0 78 -34 110.5t-110 32.5h-254 q-76 0 -109.5 -32.5t-33.5 -110.5v-31h-139v18q0 279 278 279h262q133 0 209 -88q76 88 209 88h291q279 0 278 -279v-303h-708zM1542 639v201q0 78 -32.5 110.5t-110.5 32.5h-283q-76 0 -109.5 -32.5t-33.5 -110.5v-201h569zM256 316q0 -114 39 -157.5t155 -43.5t199.5 30.5 t184.5 102.5v317l-435 -49q-82 -10 -112.5 -48t-30.5 -152z" glyph-name="ae" horiz-adv-x="1808" unicode="æ"/><glyph d="M831 754v82q0 78 -32.5 110.5t-110.5 32.5h-270q-78 0 -111 -33t-33 -110v-566q0 -78 33 -110.5t111 -32.5h270q78 0 110.5 33t32.5 110v82h140v-73q0 -279 -279 -279h-51v-102q0 -106 -38 -145.5t-142 -39.5h-119l-82 111h172q49 0 63.5 14.5t14.5 59.5v102h-96 q-279 0 -279 279v548q0 279 279 279h278q279 0 279 -279v-73h-140z" glyph-name="ccedilla" horiz-adv-x="1081" unicode="ç"/><glyph d="M569 1241l-264 295h187l184 -295h-107zM274 524v-258q0 -78 33 -110.5t111 -32.5h282q78 0 111 32.5t33 110.5v80h139v-67q0 -279 -278 -279h-291q-279 0 -279 279v548q0 279 279 279h291q279 0 278 -279v-303h-709zM700 983h-282q-78 0 -111 -32.5t-33 -110.5v-201h570 v201q0 78 -33 110.5t-111 32.5z" glyph-name="egrave" horiz-adv-x="1110" unicode="è"/><glyph d="M553 1241h-107l185 295h186zM274 524v-258q0 -78 33 -110.5t111 -32.5h282q78 0 111 32.5t33 110.5v80h139v-67q0 -279 -278 -279h-291q-279 0 -279 279v548q0 279 279 279h291q279 0 278 -279v-303h-709zM700 983h-282q-78 0 -111 -32.5t-33 -110.5v-201h570v201 q0 78 -33 110.5t-111 32.5z" glyph-name="eacute" horiz-adv-x="1110" unicode="é"/><glyph d="M397 1241h-143l233 246h148l233 -246h-143l-164 168zM274 524v-258q0 -78 33 -110.5t111 -32.5h282q78 0 111 32.5t33 110.5v80h139v-67q0 -279 -278 -279h-291q-279 0 -279 279v548q0 279 279 279h291q279 0 278 -279v-303h-709zM700 983h-282q-78 0 -111 -32.5 t-33 -110.5v-201h570v201q0 78 -33 110.5t-111 32.5z" glyph-name="ecircumflex" horiz-adv-x="1110" unicode="ê"/><glyph d="M475 1241h-176v213h176v-213zM823 1241h-176v213h176v-213zM274 524v-258q0 -78 33 -110.5t111 -32.5h282q78 0 111 32.5t33 110.5v80h139v-67q0 -279 -278 -279h-291q-279 0 -279 279v548q0 279 279 279h291q279 0 278 -279v-303h-709zM700 983h-282q-78 0 -111 -32.5 t-33 -110.5v-201h570v201q0 78 -33 110.5t-111 32.5z" glyph-name="edieresis" horiz-adv-x="1110" unicode="ë"/><glyph d="M227 1221l-264 295h187l184 -295h-107zM311 1106v-1106h-139v1106h139z" glyph-name="igrave" horiz-adv-x="483" unicode="ì"/><glyph d="M254 1221h-107l185 295h186zM311 1106v-1106h-139v1106h139z" glyph-name="iacute" horiz-adv-x="483" unicode="í"/><glyph d="M78 1221h-144l234 245h147l234 -245h-143l-164 168zM311 1106v-1106h-139v1106h139z" glyph-name="icircumflex" horiz-adv-x="483" unicode="î"/><glyph d="M156 1241h-176v213h176v-213zM504 1241h-176v213h176v-213zM311 1106v-1106h-139v1106h139z" glyph-name="idieresis" horiz-adv-x="483" unicode="ï"/><glyph d="M1012 279q0 -279 -279 -279h-319q-279 0 -279 279v462q0 143 77 211t255 68q100 0 177 -23.5t119 -51t109 -85.5v201q0 89 -54 109t-97 34l-139 43l-125 -121h-144l160 154l-209 63v107l301 -80l109 105h143l-139 -136l47 -12q152 -39 220.5 -92t66.5 -174v-782zM872 270 v490q-100 72 -184 102.5t-208 30.5t-165 -32t-41 -111v-480q0 -78 33 -110.5t111 -32.5h311q78 0 110.5 32.5t32.5 110.5z" glyph-name="eth" horiz-adv-x="1146" unicode="ð"/><glyph d="M367 1253h-111v43q0 84 51 134.5t128 50.5t158 -67.5t132 -67.5q68 0 68 67v51h110v-43q0 -84 -51 -134t-122 -50t-122 34t-92 67.5t-82 33.5q-68 0 -67 -67v-52zM299 1106v-150q98 84 177 122q78 38 228 38t225 -67.5t75 -210.5v-838h-140v846q0 78 -38 110.5t-150 32.5 t-194.5 -30.5t-182.5 -102.5v-856h-139v1106h139z" glyph-name="ntilde" horiz-adv-x="1153" unicode="ñ"/><glyph d="M578 1241l-265 295h187l184 -295h-106zM414 1106h305q279 0 278 -279v-548q0 -279 -278 -279h-305q-279 0 -279 279v548q0 279 279 279zM858 270v566q0 78 -33.5 110.5t-109.5 32.5h-297q-78 0 -111 -33t-33 -110v-566q0 -78 33 -110.5t111 -32.5h297q76 0 109.5 32.5 t33.5 110.5z" glyph-name="ograve" horiz-adv-x="1132" unicode="ò"/><glyph d="M561 1241h-106l184 295h186zM414 1106h305q279 0 278 -279v-548q0 -279 -278 -279h-305q-279 0 -279 279v548q0 279 279 279zM858 270v566q0 78 -33.5 110.5t-109.5 32.5h-297q-78 0 -111 -33t-33 -110v-566q0 -78 33 -110.5t111 -32.5h297q76 0 109.5 32.5t33.5 110.5z " glyph-name="oacute" horiz-adv-x="1132" unicode="ó"/><glyph d="M406 1241h-144l234 246h147l234 -246h-144l-164 168zM414 1106h305q279 0 278 -279v-548q0 -279 -278 -279h-305q-279 0 -279 279v548q0 279 279 279zM858 270v566q0 78 -33.5 110.5t-109.5 32.5h-297q-78 0 -111 -33t-33 -110v-566q0 -78 33 -110.5t111 -32.5h297 q76 0 109.5 32.5t33.5 110.5z" glyph-name="ocircumflex" horiz-adv-x="1132" unicode="ô"/><glyph d="M356 1253h-110v43q0 84 51 134.5t128 50.5t158 -67.5t132 -67.5q68 0 67 67v51h111v-43q0 -84 -51 -134t-122 -50t-122 34t-92 67.5t-82 33.5q-68 0 -68 -67v-52zM414 1106h305q279 0 278 -279v-548q0 -279 -278 -279h-305q-279 0 -279 279v548q0 279 279 279zM858 270 v566q0 78 -33.5 110.5t-109.5 32.5h-297q-78 0 -111 -33t-33 -110v-566q0 -78 33 -110.5t111 -32.5h297q76 0 109.5 32.5t33.5 110.5z" glyph-name="otilde" horiz-adv-x="1132" unicode="õ"/><glyph d="M483 1241h-176v213h176v-213zM831 1241h-176v213h176v-213zM414 1106h305q279 0 278 -279v-548q0 -279 -278 -279h-305q-279 0 -279 279v548q0 279 279 279zM858 270v566q0 78 -33.5 110.5t-109.5 32.5h-297q-78 0 -111 -33t-33 -110v-566q0 -78 33 -110.5t111 -32.5h297 q76 0 109.5 32.5t33.5 110.5z" glyph-name="odieresis" horiz-adv-x="1132" unicode="ö"/><glyph d="M610 965h-180v200h180v-200zM135 801h770v-127h-770v127zM610 309h-180v201h180v-201z" glyph-name="divide" horiz-adv-x="1040" unicode="÷"/><glyph d="M997 827v-548q0 -279 -278 -279h-313l-50 -123h-127l58 141q-152 51 -152 261v548q0 279 279 279h317l49 123h127l-57 -144q147 -53 147 -258zM274 836v-566q0 -102 62 -129l342 838h-260q-78 0 -111 -32.5t-33 -110.5zM858 270v566q0 100 -57 129l-342 -838h256 q76 0 109.5 32.5t33.5 110.5z" glyph-name="oslash" horiz-adv-x="1132" unicode="ø"/><glyph d="M580 1241l-265 295h187l184 -295h-106zM854 0v150q-98 -84 -177 -122t-229 -38t-224 67.5t-74 210.5v838h139v-846q0 -78 38.5 -110.5t150.5 -32.5t194 30.5t182 102.5v856h139v-1106h-139z" glyph-name="ugrave" horiz-adv-x="1153" unicode="ù"/><glyph d="M563 1241h-106l184 295h186zM854 0v150q-98 -84 -177 -122t-229 -38t-224 67.5t-74 210.5v838h139v-846q0 -78 38.5 -110.5t150.5 -32.5t194 30.5t182 102.5v856h139v-1106h-139z" glyph-name="uacute" horiz-adv-x="1153" unicode="ú"/><glyph d="M408 1241h-144l234 246h147l234 -246h-144l-164 168zM854 0v150q-98 -84 -177 -122t-229 -38t-224 67.5t-74 210.5v838h139v-846q0 -78 38.5 -110.5t150.5 -32.5t194 30.5t182 102.5v856h139v-1106h-139z" glyph-name="ucircumflex" horiz-adv-x="1153" unicode="û"/><glyph d="M485 1241h-176v213h176v-213zM834 1241h-177v213h177v-213zM854 0v150q-98 -84 -177 -122t-229 -38t-224 67.5t-74 210.5v838h139v-846q0 -78 38.5 -110.5t150.5 -32.5t194 30.5t182 102.5v856h139v-1106h-139z" glyph-name="udieresis" horiz-adv-x="1153" unicode="ü"/><glyph d="M514 1241h-106l184 295h186zM991 1106l-538 -1434h-131l120 328l-401 1106h143l328 -932l340 932h139z" glyph-name="yacute" horiz-adv-x="1032" unicode="ý"/><glyph d="M705 1114q178 0 254.5 -67.5t76.5 -210.5v-566q0 -143 -76.5 -210.5t-254.5 -67.5q-100 0 -177 23.5t-119 51t-110 85.5v-480h-139v1823h139v-541q68 57 110 85t119 51.5t177 23.5zM897 262v582q0 80 -41 111.5t-165 31.5t-208 -30.5t-184 -102.5v-602 q100 -72 184 -102.5t208 -30.5t165 31.5t41 111.5z" glyph-name="thorn" horiz-adv-x="1171" unicode="þ"/><glyph d="M436 1241h-176v213h176v-213zM784 1241h-176v213h176v-213zM991 1106l-538 -1434h-131l120 328l-401 1106h143l328 -932l340 932h139z" glyph-name="ydieresis" horiz-adv-x="1032" unicode="ÿ"/><glyph d="M926 1569h-525v123h525v-123zM969 430h-602l-154 -430h-152l527 1434h168l526 -1434h-160zM922 565l-254 707l-252 -707h506z" glyph-name="Amacron" horiz-adv-x="1343" unicode="Ā"/><glyph d="M834 1364v-123h-525v123h525zM432 1106h262q279 0 279 -279v-827h-139v152q-72 -84 -161 -122t-248 -38t-233.5 76.5t-74.5 246.5t64.5 235.5t234.5 83.5t418 28v178q0 78 -34 110.5t-110 32.5h-254q-76 0 -109.5 -32.5t-33.5 -110.5v-31h-139v18q-1 279 278 279z M256 316q0 -114 39 -157.5t155 -43.5t199.5 30.5t184.5 102.5v317l-435 -49q-82 -10 -112.5 -48t-30.5 -152z" glyph-name="amacron" horiz-adv-x="1122" unicode="ā"/><glyph d="M743 1569h-143q-131 0 -131 131v104h106v-102q0 -23 7.5 -30t29.5 -7h119q23 0 30 7t7 30v102h106v-104q0 -131 -131 -131zM969 430h-602l-154 -430h-152l527 1434h168l526 -1434h-160zM922 565l-254 707l-252 -707h506z" glyph-name="Abreve" horiz-adv-x="1343" unicode="Ă"/><glyph d="M782 1477v-105q0 -131 -131 -131h-143q-131 0 -131 131v105h106v-103q0 -23 8.5 -30t28.5 -7h119q20 0 28.5 7.5t8.5 29.5v103h106zM432 1106h262q279 0 279 -279v-827h-139v152q-72 -84 -161 -122t-248 -38t-233.5 76.5t-74.5 246.5t64.5 235.5t234.5 83.5t418 28v178 q0 78 -34 110.5t-110 32.5h-254q-76 0 -109.5 -32.5t-33.5 -110.5v-31h-139v18q-1 279 278 279zM256 316q0 -114 39 -157.5t155 -43.5t199.5 30.5t184.5 102.5v317l-435 -49q-82 -10 -112.5 -48t-30.5 -152z" glyph-name="abreve" horiz-adv-x="1122" unicode="ă"/><glyph d="M1368 -233v-111h-205q-98 0 -138 53t19 148l103 143h-25l-153 430h-602l-154 -430h-152l527 1434h168l526 -1434l-131 -195q-10 -16 -5 -27t25 -11h197zM922 565l-254 707l-252 -707h506z" glyph-name="Aogonek" horiz-adv-x="1343" unicode="Ą"/><glyph d="M1059 -233v-111h-205q-98 0 -137 53t18 148l99 143v152q-72 -84 -161 -122t-248 -38t-233.5 76.5t-74.5 246.5t64.5 235.5t234.5 83.5t418 28v178q0 78 -34 110.5t-110 32.5h-254q-76 0 -109.5 -32.5t-33.5 -110.5v-31h-139v18q0 279 278 279h262q279 0 279 -279v-827 l-131 -195q-10 -16 -5 -27t25 -11h197zM450 115q116 0 199.5 30.5t184.5 102.5v317l-435 -49q-82 -10 -112.5 -48t-30.5 -152t39 -157.5t155 -43.5z" glyph-name="aogonek" horiz-adv-x="1122" unicode="ą"/><glyph d="M662 1569h-107l184 295h187zM872 0h-426q-287 0 -286 287v860q0 287 286 287h426q287 0 287 -287v-156h-147v160q0 80 -34 113.5t-114 33.5h-409q-80 0 -114 -33.5t-34 -113.5v-868q0 -80 34 -114t114 -34h409q80 0 114 34t34 114v159h147v-155q0 -287 -287 -287z" glyph-name="Cacute" horiz-adv-x="1294" unicode="Ć"/><glyph d="M551 1241h-107l185 295h186zM414 1106h278q279 0 279 -279v-73h-140v82q0 78 -32.5 110.5t-110.5 32.5h-270q-78 0 -111 -33t-33 -110v-566q0 -78 33 -110.5t111 -32.5h270q78 0 110.5 33t32.5 110v82h140v-73q0 -279 -279 -279h-278q-279 0 -279 279v548q0 279 279 279z " glyph-name="cacute" horiz-adv-x="1081" unicode="ć"/><glyph d="M760 1569h-180v200h180v-200zM872 0h-426q-287 0 -286 287v860q0 287 286 287h426q287 0 287 -287v-156h-147v160q0 80 -34 113.5t-114 33.5h-409q-80 0 -114 -33.5t-34 -113.5v-868q0 -80 34 -114t114 -34h409q80 0 114 34t34 114v159h147v-155q0 -287 -287 -287z" glyph-name="Cdotaccent" horiz-adv-x="1294" unicode="Ċ"/><glyph d="M649 1241h-180v201h180v-201zM414 1106h278q279 0 279 -279v-73h-140v82q0 78 -32.5 110.5t-110.5 32.5h-270q-78 0 -111 -33t-33 -110v-566q0 -78 33 -110.5t111 -32.5h270q78 0 110.5 33t32.5 110v82h140v-73q0 -279 -279 -279h-278q-279 0 -279 279v548q0 279 279 279 z" glyph-name="cdotaccent" horiz-adv-x="1081" unicode="ċ"/><glyph d="M596 1569l-234 246h144l164 -168l164 168h143l-234 -246h-147zM872 0h-426q-287 0 -286 287v860q0 287 286 287h426q287 0 287 -287v-156h-147v160q0 80 -34 113.5t-114 33.5h-409q-80 0 -114 -33.5t-34 -113.5v-868q0 -80 34 -114t114 -34h409q80 0 114 34t34 114v159 h147v-155q0 -287 -287 -287z" glyph-name="Ccaron" horiz-adv-x="1294" unicode="Č"/><glyph d="M485 1241l-233 246h143l164 -168l164 168h143l-233 -246h-148zM414 1106h278q279 0 279 -279v-73h-140v82q0 78 -32.5 110.5t-110.5 32.5h-270q-78 0 -111 -33t-33 -110v-566q0 -78 33 -110.5t111 -32.5h270q78 0 110.5 33t32.5 110v82h140v-73q0 -279 -279 -279h-278 q-279 0 -279 279v548q0 279 279 279z" glyph-name="ccaron" horiz-adv-x="1081" unicode="č"/><glyph d="M618 1569l-233 246h143l164 -168l164 168h143l-233 -246h-148zM197 1434h714q287 0 287 -287v-860q0 -287 -287 -287h-714v1434zM344 135h559q80 0 114 34t34 114v868q0 80 -34 113.5t-114 33.5h-559v-1163z" glyph-name="Dcaron" horiz-adv-x="1357" unicode="Ď"/><glyph d="M467 1114q100 0 177 -23.5t119 -51t109 -85.5v541h140v-1495h-140v152q-68 -57 -109.5 -85t-118.5 -51.5t-177 -23.5q-178 0 -255 67.5t-77 210.5v566q0 143 77 210.5t255 67.5zM1333 1489v-152q0 -51 -12 -80.5t-64 -111.5l-73 -117h-82l129 252h-94v209h196zM274 844 v-582q0 -80 41 -111.5t165 -31.5t208 30.5t184 102.5v602q-100 72 -184 102.5t-208 30.5t-165 -31.5t-41 -111.5z" glyph-name="dcaron" horiz-adv-x="1171" unicode="ď"/><glyph d="M197 1434h714q287 0 287 -287v-860q0 -287 -287 -287h-714v657h-183v136h183v641zM1051 283v868q0 80 -34 113.5t-114 33.5h-559v-505h182v-136h-182v-522h559q80 0 114 34t34 114z" glyph-name="Dcroat" horiz-adv-x="1357" unicode="Đ"/><glyph d="M1122 1217h-110v-1217h-140v152q-68 -57 -109.5 -85t-118.5 -51.5t-177 -23.5q-178 0 -255 67.5t-77 210.5v566q0 143 77 210.5t255 67.5q100 0 177 -23.5t119 -51t109 -85.5v263h-208v106h208v172h140v-172h110v-106zM480 987q-124 0 -165 -31.5t-41 -111.5v-582 q0 -80 41 -111.5t165 -31.5t208 30.5t184 102.5v602q-100 72 -184 102.5t-208 30.5z" glyph-name="dcroat" horiz-adv-x="1171" unicode="đ"/><glyph d="M913 1692v-123h-524v123h524zM197 1434h907v-136h-760v-497h641v-135h-641v-531h760v-135h-907v1434z" glyph-name="Emacron" horiz-adv-x="1216" unicode="Ē"/><glyph d="M815 1241h-524v123h524v-123zM274 524v-258q0 -78 33 -110.5t111 -32.5h282q78 0 111 32.5t33 110.5v80h139v-67q0 -279 -278 -279h-291q-279 0 -279 279v548q0 279 279 279h291q279 0 278 -279v-303h-709zM700 983h-282q-78 0 -111 -32.5t-33 -110.5v-201h570v201 q0 78 -33 110.5t-111 32.5z" glyph-name="emacron" horiz-adv-x="1110" unicode="ē"/><glyph d="M750 1569h-181v200h181v-200zM197 1434h907v-136h-760v-497h641v-135h-641v-531h760v-135h-907v1434z" glyph-name="Edotaccent" horiz-adv-x="1216" unicode="Ė"/><glyph d="M651 1241h-180v201h180v-201zM274 524v-258q0 -78 33 -110.5t111 -32.5h282q78 0 111 32.5t33 110.5v80h139v-67q0 -279 -278 -279h-291q-279 0 -279 279v548q0 279 279 279h291q279 0 278 -279v-303h-709zM700 983h-282q-78 0 -111 -32.5t-33 -110.5v-201h570v201 q0 78 -33 110.5t-111 32.5z" glyph-name="edotaccent" horiz-adv-x="1110" unicode="ė"/><glyph d="M1190 -233v-111h-205q-98 0 -138 53t19 148l103 143h-772v1434h907v-136h-760v-497h641v-135h-641v-531h760v-135l-131 -195q-10 -16 -5 -27t25 -11h197z" glyph-name="Eogonek" horiz-adv-x="1216" unicode="Ę"/><glyph d="M274 524v-258q0 -78 33 -110.5t111 -32.5h282q78 0 111 32.5t33 110.5v80h139v-67q0 -279 -278 -279h-66l-131 -195q-10 -16 -5 -27t25 -11h197v-111h-205q-98 0 -138 53t19 148l103 143h-90q-279 0 -279 279v548q0 279 279 279h291q279 0 278 -279v-303h-709zM700 983 h-282q-78 0 -111 -32.5t-33 -110.5v-201h570v201q0 78 -33 110.5t-111 32.5z" glyph-name="eogonek" horiz-adv-x="1110" unicode="ę"/><glyph d="M586 1569l-234 246h144l163 -168l164 168h144l-234 -246h-147zM197 1434h907v-136h-760v-497h641v-135h-641v-531h760v-135h-907v1434z" glyph-name="Ecaron" horiz-adv-x="1216" unicode="Ě"/><glyph d="M487 1241l-233 246h143l164 -168l164 168h143l-233 -246h-148zM274 524v-258q0 -78 33 -110.5t111 -32.5h282q78 0 111 32.5t33 110.5v80h139v-67q0 -279 -278 -279h-291q-279 0 -279 279v548q0 279 279 279h291q279 0 278 -279v-303h-709zM700 983h-282 q-78 0 -111 -32.5t-33 -110.5v-201h570v201q0 78 -33 110.5t-111 32.5z" glyph-name="ecaron" horiz-adv-x="1110" unicode="ě"/><glyph d="M870 1804v-104q0 -131 -131 -131h-143q-131 0 -131 131v104h106v-102q0 -23 7.5 -30t29.5 -7h119q23 0 30 7t7 30v102h106zM1026 1012v139q0 80 -34 113.5t-113 33.5h-424q-80 0 -114 -33.5t-34 -113.5v-868q0 -80 34 -114t114 -34h424q80 0 113.5 34t33.5 114v325h-375 v135h523v-456q0 -287 -287 -287h-441q-287 0 -286 287v860q0 287 286 287h441q287 0 287 -287v-135h-148z" glyph-name="Gbreve" horiz-adv-x="1329" unicode="Ğ"/><glyph d="M799 1477v-105q0 -131 -131 -131h-144q-131 0 -131 131v105h107v-103q0 -23 8 -30t29 -7h118q20 0 28.5 7.5t8.5 29.5v103h107zM1012 1106v-1155q0 -279 -279 -279h-479v123h475q78 0 110.5 33t32.5 111v241q-68 -57 -109.5 -84.5t-118.5 -51.5t-177 -24q-178 0 -255 68 t-77 211v537q0 143 77 210.5t255 67.5q100 0 177 -23.5t119 -51t109 -85.5v152h140zM274 844v-553q0 -80 41 -112t165 -32t208 31t184 103v573q-100 72 -184 102.5t-208 30.5t-165 -31.5t-41 -111.5z" glyph-name="gbreve" horiz-adv-x="1171" unicode="ğ"/><glyph d="M758 1569h-180v200h180v-200zM1026 1012v139q0 80 -34 113.5t-113 33.5h-424q-80 0 -114 -33.5t-34 -113.5v-868q0 -80 34 -114t114 -34h424q80 0 113.5 34t33.5 114v325h-375v135h523v-456q0 -287 -287 -287h-441q-287 0 -286 287v860q0 287 286 287h441q287 0 287 -287 v-135h-148z" glyph-name="Gdotaccent" horiz-adv-x="1329" unicode="Ġ"/><glyph d="M686 1241h-180v201h180v-201zM1012 1106v-1155q0 -279 -279 -279h-479v123h475q78 0 110.5 33t32.5 111v241q-68 -57 -109.5 -84.5t-118.5 -51.5t-177 -24q-178 0 -255 68t-77 211v537q0 143 77 210.5t255 67.5q100 0 177 -23.5t119 -51t109 -85.5v152h140zM274 844v-553 q0 -80 41 -112t165 -32t208 31t184 103v573q-100 72 -184 102.5t-208 30.5t-165 -31.5t-41 -111.5z" glyph-name="gdotaccent" horiz-adv-x="1171" unicode="ġ"/><glyph d="M1026 1012v139q0 80 -34 113.5t-113 33.5h-424q-80 0 -114 -33.5t-34 -113.5v-868q0 -80 34 -114t114 -34h424q80 0 113.5 34t33.5 114v325h-375v135h523v-456q0 -287 -287 -287h-441q-287 0 -286 287v860q0 287 286 287h441q287 0 287 -287v-135h-148zM758 -143v-164 q0 -35 -36 -99.5t-40 -72.5l-59 -117h-88l122 252h-79v201h180z" glyph-name="Gcommaaccent" horiz-adv-x="1329" unicode="Ģ"/><glyph d="M506 1249v164q0 38 36 101t40 71l59 117h88l-123 -252h80v-201h-180zM1012 1106v-1155q0 -279 -279 -279h-479v123h475q78 0 110.5 33t32.5 111v241q-68 -57 -109.5 -84.5t-118.5 -51.5t-177 -24q-178 0 -255 68t-77 211v537q0 143 77 210.5t255 67.5q100 0 177 -23.5 t119 -51t109 -85.5v152h140zM274 844v-553q0 -80 41 -112t165 -32t208 31t184 103v573q-100 72 -184 102.5t-208 30.5t-165 -31.5t-41 -111.5z" glyph-name="gcommaaccent" horiz-adv-x="1171" unicode="ģ"/><glyph d="M1339 1087h-118v-1087h-148v690h-729v-690h-147v1087h-119v115h119v232h147v-232h729v232h148v-232h118v-115zM1073 1087h-729v-262h729v262z" glyph-name="Hbar" horiz-adv-x="1417" unicode="Ħ"/><glyph d="M704 1116q150 0 225 -67.5t75 -210.5v-838h-140v846q0 78 -38 110.5t-150 32.5t-194.5 -30.5t-182.5 -102.5v-856h-139v1217h-111v106h111v172h139v-172h209v-106h-209v-261q98 84 176.5 122t228.5 38z" glyph-name="hbar" horiz-adv-x="1153" unicode="ħ"/><glyph d="M524 1692v-123h-524v123h524zM197 0v1434h147v-1434h-147z" glyph-name="Imacron" horiz-adv-x="540" unicode="Ī"/><glyph d="M504 1384v-122h-524v122h524zM311 1106v-1106h-139v1106h139z" glyph-name="imacron" horiz-adv-x="483" unicode="ī"/><glyph d="M430 -233v-111h-205q-98 0 -138 53t19 148l103 143h-12v1434h147v-1434l-131 -195q-10 -16 -5 -27t25 -11h197z" glyph-name="Iogonek" horiz-adv-x="540" unicode="Į"/><glyph d="M322 1274h-160v180h160v-180zM397 -233v-111h-204q-98 0 -138.5 53t19.5 148l102 143h-4v1106h139v-1106l-131 -195q-10 -16 -5 -27t26 -11h196z" glyph-name="iogonek" horiz-adv-x="483" unicode="į"/><glyph d="M360 1569h-180v200h180v-200zM197 0v1434h147v-1434h-147z" glyph-name="Idotaccent" horiz-adv-x="540" unicode="İ"/><glyph d="M197 0v1434h147v-1434h-147zM1528 1434v-1147q0 -287 -287 -287h-332q-287 0 -286 287v229h147v-233q0 -80 34 -114t114 -34h315q80 0 113.5 34t33.5 114v1151h148z" glyph-name="IJ" horiz-adv-x="1701" unicode="Ĳ"/><glyph d="M322 1274h-160v180h160v-180zM838 1274h-160v180h160v-180zM311 1106v-1106h-139v1106h139zM827 1106v-1147q0 -125 -66.5 -187.5t-211.5 -90.5l-103 -21v100l99 35q70 25 106.5 58.5t36.5 95.5v1157h139z" glyph-name="ij" horiz-adv-x="999" unicode="ĳ"/><glyph d="M344 0h-147v1434h147v-842l737 842h183l-516 -578l561 -856h-172l-486 748l-307 -345v-403zM588 -143h180v-164q0 -35 -36 -99.5t-40 -72.5l-59 -117h-88l123 252h-80v201z" glyph-name="Kcommaaccent" horiz-adv-x="1300" unicode="Ķ"/><glyph d="M299 0h-139v1495h139v-1003l512 614h170l-360 -418l393 -688h-156l-323 588l-236 -273v-315zM453 -143h180v-164q0 -35 -36 -99.5t-40 -72.5l-59 -117h-88l122 252h-79v201z" glyph-name="kcommaaccent" horiz-adv-x="1050" unicode="ķ"/><glyph d="M262 1569h-106l184 295h186zM197 1434h147v-1299h709v-135h-856v1434z" glyph-name="Lacute" horiz-adv-x="1134" unicode="Ĺ"/><glyph d="M233 1630h-106l184 295h187zM172 1495h139v-1495h-139v1495z" glyph-name="lacute" horiz-adv-x="483" unicode="ĺ"/><glyph d="M197 1434h147v-1299h709v-135h-856v1434zM735 -143v-164q0 -50 -76 -172l-59 -117h-88l123 252h-80v201h180z" glyph-name="Lcommaaccent" horiz-adv-x="1134" unicode="Ļ"/><glyph d="M172 1495h139v-1495h-139v1495zM332 -143v-164q0 -36 -36 -99t-40 -73l-59 -117h-88l122 252h-79v201h180z" glyph-name="lcommaaccent" horiz-adv-x="483" unicode="ļ"/><glyph d="M750 1442v-152q0 -51 -12.5 -80.5t-63.5 -111.5l-74 -117h-82l129 252h-94v209h197zM197 1434h147v-1299h709v-135h-856v1434z" glyph-name="Lcaron" horiz-adv-x="1134" unicode="Ľ"/><glyph d="M172 1495h139v-1495h-139v1495zM639 1495v-164q0 -35 -36 -99.5t-40 -72.5l-59 -117h-88l123 252h-80v201h180z" glyph-name="lcaron" horiz-adv-x="659" unicode="ľ"/><glyph d="M197 1434h147v-1299h709v-135h-856v1434zM928 653h-197v209h197v-209z" glyph-name="Ldot" horiz-adv-x="1134" unicode="Ŀ"/><glyph d="M172 1495h139v-1495h-139v1495zM670 717h-181v201h181v-201z" glyph-name="ldot" horiz-adv-x="700" unicode="ŀ"/><glyph d="M1053 135v-135h-856v692l-138 -57v141l138 58v641h147v-582l264 108v-141l-264 -108v-617h709z" glyph-name="Lslash" horiz-adv-x="1134" unicode="Ł"/><glyph d="M369 0h-140v700l-204 -84v142l204 84v653h140v-596l204 84v-141l-204 -84v-758z" glyph-name="lslash" horiz-adv-x="598" unicode="ł"/><glyph d="M717 1569h-107l185 295h186zM1114 1434h139v-1434h-151l-766 1231v-1231h-139v1434h163l754 -1213v1213z" glyph-name="Nacute" horiz-adv-x="1449" unicode="Ń"/><glyph d="M571 1241h-106l184 295h187zM299 1106v-150q98 84 177 122q78 38 228 38t225 -67.5t75 -210.5v-838h-140v846q0 78 -38 110.5t-150 32.5t-194.5 -30.5t-182.5 -102.5v-856h-139v1106h139z" glyph-name="nacute" horiz-adv-x="1153" unicode="ń"/><glyph d="M1114 1434h139v-1434h-151l-766 1231v-1231h-139v1434h163l754 -1213v1213zM815 -143v-164q0 -38 -36 -101t-40 -71l-59 -117h-88l123 252h-80v201h180z" glyph-name="Ncommaaccent" horiz-adv-x="1449" unicode="Ņ"/><glyph d="M299 1106v-150q98 84 177 122t228.5 38t224.5 -67.5t75 -210.5v-838h-140v846q0 78 -38 110.5t-150.5 32.5t-194.5 -30.5t-182 -102.5v-856h-139v1106h139zM672 -143v-164q0 -35 -36 -99.5t-40 -72.5l-59 -117h-88l122 252h-79v201h180z" glyph-name="ncommaaccent" horiz-adv-x="1153" unicode="ņ"/><glyph d="M651 1569l-233 246h143l164 -168l164 168h143l-233 -246h-148zM1114 1434h139v-1434h-151l-766 1231v-1231h-139v1434h163l754 -1213v1213z" glyph-name="Ncaron" horiz-adv-x="1449" unicode="Ň"/><glyph d="M506 1241l-234 246h144l164 -168l163 168h144l-234 -246h-147zM299 1106v-150q98 84 177 122q78 38 228 38t225 -67.5t75 -210.5v-838h-140v846q0 78 -38 110.5t-150 32.5t-194.5 -30.5t-182.5 -102.5v-856h-139v1106h139z" glyph-name="ncaron" horiz-adv-x="1153" unicode="ň"/><glyph d="M1253 1434v-1475q0 -287 -286 -287h-140v131h148q80 0 113.5 34t33.5 114v26l-790 1260v-1237h-135v1434h155l766 -1198v1198h135z" glyph-name="Eng" horiz-adv-x="1449" unicode="Ŋ"/><glyph d="M704 1116q150 0 225 -67.5t75 -210.5v-887q0 -135 -72 -207t-207 -72h-121v127h117q143 0 143 144v903q0 78 -38 110.5t-150 32.5t-194.5 -30.5t-182.5 -102.5v-856h-139v1106h139v-150q98 84 176.5 122t228.5 38z" glyph-name="eng" horiz-adv-x="1153" unicode="ŋ"/><glyph d="M930 1692v-123h-524v123h524zM899 0h-453q-287 0 -286 287v860q0 287 286 287h453q287 0 287 -287v-860q0 -287 -287 -287zM307 1151v-868q0 -80 34 -114t114 -34h436q80 0 113.5 34t33.5 114v868q0 80 -33.5 113.5t-113.5 33.5h-436q-80 0 -114 -33.5t-34 -113.5z" glyph-name="Omacron" horiz-adv-x="1345" unicode="Ō"/><glyph d="M823 1364v-123h-524v123h524zM414 1106h305q279 0 278 -279v-548q0 -279 -278 -279h-305q-279 0 -279 279v548q0 279 279 279zM858 270v566q0 78 -33.5 110.5t-109.5 32.5h-297q-78 0 -111 -33t-33 -110v-566q0 -78 33 -110.5t111 -32.5h297q76 0 109.5 32.5t33.5 110.5z " glyph-name="omacron" horiz-adv-x="1132" unicode="ō"/><glyph d="M776 1866l-235 -297h-148l236 297h147zM1069 1866l-235 -297h-148l236 297h147zM899 0h-453q-287 0 -286 287v860q0 287 286 287h453q287 0 287 -287v-860q0 -287 -287 -287zM307 1151v-868q0 -80 34 -114t114 -34h436q80 0 113.5 34t33.5 114v868q0 80 -33.5 113.5 t-113.5 33.5h-436q-80 0 -114 -33.5t-34 -113.5z" glyph-name="Ohungarumlaut" horiz-adv-x="1345" unicode="Ő"/><glyph d="M670 1538l-236 -297h-147l235 297h148zM963 1538l-236 -297h-147l235 297h148zM414 1106h305q279 0 278 -279v-548q0 -279 -278 -279h-305q-279 0 -279 279v548q0 279 279 279zM858 270v566q0 78 -33.5 110.5t-109.5 32.5h-297q-78 0 -111 -33t-33 -110v-566 q0 -78 33 -110.5t111 -32.5h297q76 0 109.5 32.5t33.5 110.5z" glyph-name="ohungarumlaut" horiz-adv-x="1132" unicode="ő"/><glyph d="M1827 801v-135h-641v-531h760v-135h-1500q-287 0 -286 287v860q0 287 286 287h1500v-136h-760v-497h641zM1038 1298h-583q-80 0 -114 -33.5t-34 -113.5v-868q0 -80 34 -114t114 -34h583v1163z" glyph-name="OE" horiz-adv-x="2058" unicode="Œ"/><glyph d="M997 524v-258q0 -78 34 -110.5t110 -32.5h282q76 0 110 32.5t34 110.5v80h139v-67q0 -279 -279 -279h-290q-133 0 -209 88q-76 -88 -209 -88h-305q-279 0 -279 279v548q0 279 279 279h305q133 0 209 -88q76 88 209 88h290q279 0 279 -279v-303h-709zM1567 639v201 q0 78 -33 110.5t-111 32.5h-282q-76 0 -110 -32.5t-34 -110.5v-201h570zM858 270v566q0 78 -33.5 110.5t-109.5 32.5h-297q-78 0 -111 -33t-33 -110v-566q0 -78 33 -110.5t111 -32.5h297q76 0 109.5 32.5t33.5 110.5z" glyph-name="oe" horiz-adv-x="1832" unicode="œ"/><glyph d="M664 1569h-107l184 295h187zM344 592v-592h-147v1434h698q287 0 287 -287v-268q0 -281 -275 -287l320 -592h-164l-320 592h-399zM344 727h543q80 0 113.5 34t33.5 113v277q0 80 -33.5 113.5t-113.5 33.5h-543v-571z" glyph-name="Racute" horiz-adv-x="1343" unicode="Ŕ"/><glyph d="M424 1241h-107l185 295h186zM729 971h-78q-96 0 -174 -33t-178 -96v-842h-139v1106h139v-160q66 53 102.5 81t106.5 53.5t143 25.5h78v-135z" glyph-name="racute" horiz-adv-x="786" unicode="ŕ"/><glyph d="M344 592v-592h-147v1434h698q287 0 287 -287v-268q0 -281 -275 -287l320 -592h-164l-320 592h-399zM344 727h543q80 0 113.5 34t33.5 113v277q0 80 -33.5 113.5t-113.5 33.5h-543v-571zM592 -143h180v-164q0 -38 -36 -101t-40 -71l-59 -117h-88l123 252h-80v201z" glyph-name="Rcommaaccent" horiz-adv-x="1343" unicode="Ŗ"/><glyph d="M729 971h-78q-96 0 -174 -33t-178 -96v-842h-139v1106h139v-160q66 53 102.5 81t106.5 53.5t143 25.5h78v-135zM319 -143v-164q0 -38 -35.5 -100t-39.5 -72l-60 -117h-88l123 252h-80v201h180z" glyph-name="rcommaaccent" horiz-adv-x="786" unicode="ŗ"/><glyph d="M598 1569l-233 246h143l164 -168l164 168h143l-234 -246h-147zM344 592v-592h-147v1434h698q287 0 287 -287v-268q0 -281 -275 -287l320 -592h-164l-320 592h-399zM344 727h543q80 0 113.5 34t33.5 113v277q0 80 -33.5 113.5t-113.5 33.5h-543v-571z" glyph-name="Rcaron" horiz-adv-x="1343" unicode="Ř"/><glyph d="M358 1241l-233 246h143l164 -168l164 168h143l-233 -246h-148zM729 971h-78q-96 0 -174 -33t-178 -96v-842h-139v1106h139v-160q66 53 102.5 81t106.5 53.5t143 25.5h78v-135z" glyph-name="rcaron" horiz-adv-x="786" unicode="ř"/><glyph d="M629 1569h-107l185 295h186zM967 1016v143q0 80 -34 114t-114 34h-381q-80 0 -113.5 -34t-33.5 -114v-145q0 -78 33.5 -113t113.5 -53l402 -92q74 -16 116 -32q40 -16 88 -47q90 -61 91 -214v-176q0 -287 -287 -287h-422q-287 0 -287 287v145h148v-158q0 -80 33.5 -113.5 t113.5 -33.5h406q80 0 113.5 34t33.5 113v172q0 78 -33.5 113t-113.5 53l-402 93q-74 15 -116 31q-40 16 -88 48q-90 60 -91 213v150q0 287 287 287h397q287 0 287 -287v-131h-147z" glyph-name="Sacute" horiz-adv-x="1273" unicode="Ś"/><glyph d="M516 1241h-106l184 295h186zM784 791v24q0 90 -32.5 127t-110.5 37h-238q-78 0 -110.5 -38t-32.5 -125t28.5 -114.5t98.5 -39.5l322 -54q125 -20 181 -82t56 -218t-67.5 -232t-210.5 -76h-283q-143 0 -211 75t-68 244v15h136v-23q0 -104 32.5 -144t110.5 -40h279 q80 0 111.5 41t31.5 141t-27.5 131t-99.5 43l-322 54q-125 20 -181 79.5t-56 201.5t67.5 215t210.5 73h242q143 0 211 -71.5t68 -227.5v-16h-136z" glyph-name="sacute" horiz-adv-x="1052" unicode="ś"/><glyph d="M1135 463v-176q0 -287 -287 -287h-103v-102q0 -106 -37.5 -145.5t-142.5 -39.5h-119l-81 111h172q49 0 63 14.5t14 59.5v102h-188q-287 0 -287 287v145h148v-158q0 -80 33.5 -113.5t113.5 -33.5h406q80 0 113.5 34t33.5 113v172q0 78 -33.5 113t-113.5 53l-402 93 q-74 15 -116 31q-40 16 -88 48q-90 60 -91 213v150q0 287 287 287h397q287 0 287 -287v-131h-147v143q0 80 -34 114t-114 34h-381q-80 0 -113.5 -34t-33.5 -114v-145q0 -78 33.5 -113t113.5 -53l402 -92q74 -16 116 -32q40 -16 88 -47q90 -61 91 -214z" glyph-name="Scedilla" horiz-adv-x="1273" unicode="Ş"/><glyph d="M946 307.5q0 -155.5 -67.5 -231.5t-210.5 -76h-45v-102q0 -106 -38 -145.5t-143 -39.5h-118l-82 111h172q49 0 63.5 14.5t14.5 59.5v102h-107q-143 0 -211 75t-68 244v15h136v-23q0 -104 32.5 -144t110.5 -40h279q80 0 111.5 41t31.5 141t-27.5 131t-99.5 43l-322 54 q-125 20 -181 79.5t-56 202t67.5 215t210.5 72.5h242q143 0 211 -71.5t68 -227.5v-16h-136v24q0 90 -32.5 127t-110.5 37h-238q-78 0 -110.5 -38t-32.5 -125t28.5 -114.5t98.5 -39.5l322 -54q125 -20 181 -82.5t56 -218z" glyph-name="scedilla" horiz-adv-x="1052" unicode="ş"/><glyph d="M563 1569l-233 246h143l164 -168l164 168h143l-233 -246h-148zM967 1016v143q0 80 -34 114t-114 34h-381q-80 0 -113.5 -34t-33.5 -114v-145q0 -78 33.5 -113t113.5 -53l402 -92q74 -16 116 -32q40 -16 88 -47q90 -61 91 -214v-176q0 -287 -287 -287h-422 q-287 0 -287 287v145h148v-158q0 -80 33.5 -113.5t113.5 -33.5h406q80 0 113.5 34t33.5 113v172q0 78 -33.5 113t-113.5 53l-402 93q-74 15 -116 31q-40 16 -88 48q-90 60 -91 213v150q0 287 287 287h397q287 0 287 -287v-131h-147z" glyph-name="Scaron" horiz-adv-x="1273" unicode="Š"/><glyph d="M451 1241l-234 246h143l164 -168l164 168h143l-233 -246h-147zM784 791v24q0 90 -32.5 127t-110.5 37h-238q-78 0 -110.5 -38t-32.5 -125t28.5 -114.5t98.5 -39.5l322 -54q125 -20 181 -82t56 -218t-67.5 -232t-210.5 -76h-283q-143 0 -211 75t-68 244v15h136v-23 q0 -104 32.5 -144t110.5 -40h279q80 0 111.5 41t31.5 141t-27.5 131t-99.5 43l-322 54q-125 20 -181 79.5t-56 201.5t67.5 215t210.5 73h242q143 0 211 -71.5t68 -227.5v-16h-136z" glyph-name="scaron" horiz-adv-x="1052" unicode="š"/><glyph d="M1094 1434v-136h-441v-1400q0 -106 -37.5 -145.5t-142.5 -39.5h-119l-82 111h156q49 0 63.5 14.5t14.5 59.5v1400h-440v136h1028z" glyph-name="Tcommaaccent" horiz-adv-x="1159" unicode="Ţ"/><glyph d="M360 983v-713q0 -78 33 -110.5t111 -32.5h133v-229q0 -106 -38 -145.5t-142 -39.5h-119l-82 111h172q49 0 63.5 14.5t14.5 59.5v102h-6q-279 0 -279 279v704h-164v123h164v266h139v-266h277v-123h-277z" glyph-name="tcommaaccent" horiz-adv-x="706" unicode="ţ"/><glyph d="M506 1569l-234 246h144l164 -168l163 168h144l-234 -246h-147zM1094 1298h-441v-1298h-147v1298h-440v136h1028v-136z" glyph-name="Tcaron" horiz-adv-x="1159" unicode="Ť"/><glyph d="M719 1669v-151q0 -51 -12.5 -81t-63.5 -112l-74 -117h-82l129 252h-94v209h197zM360 983v-713q0 -78 33 -110.5t111 -32.5h133v-127h-137q-279 0 -279 279v704h-164v123h164v266h139v-266h277v-123h-277z" glyph-name="tcaron" horiz-adv-x="706" unicode="ť"/><glyph d="M834 1692v-123h-525v123h525zM1094 1298h-441v-1298h-147v1298h-440v136h1028v-136z" glyph-name="Tbar" horiz-adv-x="1159" unicode="Ŧ"/><glyph d="M360 983v-293h246v-123h-246v-297q0 -78 33 -110.5t111 -32.5h133v-127h-137q-279 0 -279 279v288h-139v123h139v293h-164v123h164v266h139v-266h277v-123h-277z" glyph-name="tbar" horiz-adv-x="706" unicode="ŧ"/><glyph d="M930 1692v-123h-524v123h524zM1178 1434v-1147q0 -287 -287 -287h-430q-287 0 -287 287v1147h148v-1151q0 -80 33.5 -114t113.5 -34h414q80 0 113.5 34t33.5 114v1151h148z" glyph-name="Umacron" horiz-adv-x="1351" unicode="Ū"/><glyph d="M825 1364v-123h-524v123h524zM854 0v150q-98 -84 -177 -122t-229 -38t-224 67.5t-74 210.5v838h139v-846q0 -78 38.5 -110.5t150.5 -32.5t194 30.5t182 102.5v856h139v-1106h-139z" glyph-name="umacron" horiz-adv-x="1153" unicode="ū"/><glyph d="M729 1569h-106q-66 0 -94.5 28.5t-28.5 94.5v77q0 66 28.5 94.5t94.5 28.5h106q66 0 94.5 -28.5t28.5 -94.5v-77q0 -66 -28.5 -94.5t-94.5 -28.5zM733 1806h-115q-20 0 -20 -20v-111q0 -20 20 -20h115q20 0 21 20v111q-1 20 -21 20zM1178 1434v-1147q0 -287 -287 -287 h-430q-287 0 -287 287v1147h148v-1151q0 -80 33.5 -114t113.5 -34h414q80 0 113.5 34t33.5 114v1151h148z" glyph-name="Uring" horiz-adv-x="1351" unicode="Ů"/><glyph d="M625 1241h-107q-66 0 -94.5 28.5t-28.5 94.5v78q0 66 29 94.5t94 28.5h107q66 0 94.5 -29t28.5 -94v-78q0 -66 -28.5 -94.5t-94.5 -28.5zM629 1479h-115q-20 0 -20 -21v-110q0 -20 20 -21h115q20 0 20 21v110q0 21 -20 21zM854 0v150q-98 -84 -177 -122t-229 -38 t-224 67.5t-74 210.5v838h139v-846q0 -78 38.5 -110.5t150.5 -32.5t194 30.5t182 102.5v856h139v-1106h-139z" glyph-name="uring" horiz-adv-x="1153" unicode="ů"/><glyph d="M776 1866l-235 -297h-148l236 297h147zM1069 1866l-235 -297h-148l236 297h147zM1178 1434v-1147q0 -287 -287 -287h-430q-287 0 -287 287v1147h148v-1151q0 -80 33.5 -114t113.5 -34h414q80 0 113.5 34t33.5 114v1151h148z" glyph-name="Uhungarumlaut" horiz-adv-x="1351" unicode="Ű"/><glyph d="M672 1538l-236 -297h-147l235 297h148zM965 1538l-236 -297h-147l235 297h148zM854 0v150q-98 -84 -177 -122t-229 -38t-224 67.5t-74 210.5v838h139v-846q0 -78 38.5 -110.5t150.5 -32.5t194 30.5t182 102.5v856h139v-1106h-139z" glyph-name="uhungarumlaut" horiz-adv-x="1153" unicode="ű"/><glyph d="M1178 1434v-1147q0 -287 -287 -287h-121l-131 -195q-10 -16 -5 -27t25 -11h197v-111h-205q-98 0 -138 53t19 148l103 143h-174q-287 0 -287 287v1147h148v-1151q0 -80 33.5 -114t113.5 -34h414q80 0 113.5 34t33.5 114v1151h148z" glyph-name="Uogonek" horiz-adv-x="1351" unicode="Ų"/><glyph d="M1079 -233v-111h-205q-98 0 -137 53t19 148l98 143v150q-98 -84 -177 -122t-229 -38t-224 67.5t-74 210.5v838h139v-846q0 -78 38.5 -110.5t150.5 -32.5t194 30.5t182 102.5v856h139v-1106l-131 -195q-10 -16 -5 -27t26 -11h196z" glyph-name="uogonek" horiz-adv-x="1153" unicode="ų"/><glyph d="M774 1569h-143l233 246h148l233 -246h-143l-164 168zM1423 0h-153l-332 1202l-332 -1202h-157l-388 1434h160l305 -1246l344 1246h136l344 -1246l305 1246h155z" glyph-name="Wcircumflex" horiz-adv-x="1871" unicode="Ŵ"/><glyph d="M602 1241h-143l233 246h148l233 -246h-143l-164 168zM1186 0h-154l-266 922l-266 -922h-158l-301 1106h143l238 -965l276 965h136l276 -965l238 965h139z" glyph-name="wcircumflex" horiz-adv-x="1527" unicode="ŵ"/><glyph d="M455 1569h-144l234 246h147l234 -246h-144l-164 168zM690 0h-147v508l-510 926h160l425 -777l426 777h156l-510 -926v-508z" glyph-name="Ycircumflex" horiz-adv-x="1232" unicode="Ŷ"/><glyph d="M358 1241h-143l234 246h147l233 -246h-143l-164 168zM991 1106l-538 -1434h-131l120 328l-401 1106h143l328 -932l340 932h139z" glyph-name="ycircumflex" horiz-adv-x="1032" unicode="ŷ"/><glyph d="M532 1569h-176v213h176v-213zM881 1569h-176v213h176v-213zM690 0h-147v508l-510 926h160l425 -777l426 777h156l-510 -926v-508z" glyph-name="Ydieresis" horiz-adv-x="1232" unicode="Ÿ"/><glyph d="M621 1569h-107l184 295h187zM156 1300v134h944v-109l-805 -1192h801v-133h-975v109l805 1191h-770z" glyph-name="Zacute" horiz-adv-x="1220" unicode="Ź"/><glyph d="M481 1241h-106l184 295h186zM111 987v119h745v-86l-604 -901h596v-119h-766v86l602 901h-573z" glyph-name="zacute" horiz-adv-x="937" unicode="ź"/><glyph d="M719 1569h-180v200h180v-200zM156 1300v134h944v-109l-805 -1192h801v-133h-975v109l805 1191h-770z" glyph-name="Zdotaccent" horiz-adv-x="1220" unicode="Ż"/><glyph d="M580 1241h-181v201h181v-201zM111 987v119h745v-86l-604 -901h596v-119h-766v86l602 901h-573z" glyph-name="zdotaccent" horiz-adv-x="937" unicode="ż"/><glyph d="M555 1569l-233 246h143l164 -168l164 168h143l-234 -246h-147zM156 1300v134h944v-109l-805 -1192h801v-133h-975v109l805 1191h-770z" glyph-name="Zcaron" horiz-adv-x="1220" unicode="Ž"/><glyph d="M416 1241l-234 246h144l163 -168l164 168h144l-234 -246h-147zM111 987v119h745v-86l-604 -901h596v-119h-766v86l602 901h-573z" glyph-name="zcaron" horiz-adv-x="937" unicode="ž"/><glyph d="M762 1298h-150q-80 0 -113.5 -33.5t-33.5 -113.5v-270h276v-127h-276v-467q0 -287 -287 -287h-108v135h100q80 0 113.5 34t33.5 114v471h-233v127h233v266q0 287 287 287h158v-136z" glyph-name="florin" horiz-adv-x="831" unicode="ƒ"/><glyph d="M512 1569h-143l233 246h148l233 -246h-143l-164 168z" glyph-name="circumflex" horiz-adv-x="1351" unicode="ˆ"/><glyph d="M602 1569l-233 246h143l164 -168l164 168h143l-233 -246h-148z" glyph-name="caron" horiz-adv-x="1351" unicode="ˇ"/><glyph d="M836 1804v-104q0 -131 -131 -131h-144q-131 0 -131 131v104h107v-102q0 -23 8 -30t28 -7h119q20 0 28.5 7t8.5 30v102h107z" glyph-name="breve" horiz-adv-x="1265" unicode="˘"/><glyph d="M569 1569h-180v200h180v-200z" glyph-name="dotaccent" horiz-adv-x="958" unicode="˙"/><glyph d="M406 1569h-107q-66 0 -94.5 28.5t-28.5 94.5v77q0 66 28.5 94.5t94.5 28.5h107q66 0 94 -28.5t28 -94.5v-77q0 -66 -28 -94.5t-94 -28.5zM410 1806h-115q-20 0 -21 -20v-111q0 -20 21 -20h115q20 0 20 20v111q0 20 -20 20z" glyph-name="ring" horiz-adv-x="704" unicode="˚"/><glyph d="M375 -233h196v-111h-204q-98 0 -138.5 53t19.5 148l102 143h135l-131 -195q-10 -16 -5 -27t26 -11z" glyph-name="ogonek" horiz-adv-x="796" unicode="˛"/><glyph d="M410 1581h-111v43q0 84 51 134t128 50t158 -67.5t132 -67.5q68 0 68 68v51h110v-43q0 -84 -51 -134t-122 -50t-122 33.5t-92 67.5t-82 34q-68 0 -67 -68v-51z" glyph-name="tilde" horiz-adv-x="1249" unicode="˜"/><glyph d="M813 1866l-235 -297h-148l236 297h147zM1106 1866l-236 -297h-147l235 297h148z" glyph-name="hungarumlaut" horiz-adv-x="1536" unicode="˝"/><glyph d="M449 -143v-164q0 -36 -36 -99t-40 -73l-60 -117h-88l123 252h-80v201h181z" glyph-name="uni0326" horiz-adv-x="0" unicode="̦"/><glyph d="M946 1569l-264 295h186l185 -295h-107zM1423 0h-153l-332 1202l-332 -1202h-157l-388 1434h160l305 -1246l344 1246h136l344 -1246l305 1246h155z" glyph-name="Wgrave" horiz-adv-x="1871" unicode="Ẁ"/><glyph d="M774 1241l-264 295h186l185 -295h-107zM1186 0h-154l-266 922l-266 -922h-158l-301 1106h143l238 -965l276 965h136l276 -965l238 965h139z" glyph-name="wgrave" horiz-adv-x="1527" unicode="ẁ"/><glyph d="M930 1569h-107l185 295h186zM1423 0h-153l-332 1202l-332 -1202h-157l-388 1434h160l305 -1246l344 1246h136l344 -1246l305 1246h155z" glyph-name="Wacute" horiz-adv-x="1871" unicode="Ẃ"/><glyph d="M758 1241h-107l185 295h186zM1186 0h-154l-266 922l-266 -922h-158l-301 1106h143l238 -965l276 965h136l276 -965l238 965h139z" glyph-name="wacute" horiz-adv-x="1527" unicode="ẃ"/><glyph d="M852 1569h-176v213h176v-213zM1200 1569h-176v213h176v-213zM1423 0h-153l-332 1202l-332 -1202h-157l-388 1434h160l305 -1246l344 1246h136l344 -1246l305 1246h155z" glyph-name="Wdieresis" horiz-adv-x="1871" unicode="Ẅ"/><glyph d="M680 1241h-176v213h176v-213zM1028 1241h-176v213h176v-213zM1186 0h-154l-266 922l-266 -922h-158l-301 1106h143l238 -965l276 965h136l276 -965l238 965h139z" glyph-name="wdieresis" horiz-adv-x="1527" unicode="ẅ"/><glyph d="M627 1569l-265 295h187l184 -295h-106zM690 0h-147v508l-510 926h160l425 -777l426 777h156l-510 -926v-508z" glyph-name="Ygrave" horiz-adv-x="1232" unicode="Ỳ"/><glyph d="M530 1241l-264 295h187l184 -295h-107zM991 1106l-538 -1434h-131l120 328l-401 1106h143l328 -932l340 932h139z" glyph-name="ygrave" horiz-adv-x="1032" unicode="ỳ"/><glyph d="M1012 745v-139h-881v139h881z" glyph-name="endash" horiz-adv-x="1142" unicode="–"/><glyph d="M1532 743v-135h-1401v135h1401z" glyph-name="emdash" horiz-adv-x="1662" unicode="—"/><glyph d="M131 973v151q0 51 12.5 81t63.5 112l74 117h81l-129 -252h95v-209h-197z" glyph-name="quoteleft" horiz-adv-x="458" unicode="‘"/><glyph d="M328 1434v-152q0 -51 -12.5 -81t-63.5 -111l-74 -117h-82l129 252h-94v209h197z" glyph-name="quoteright" horiz-adv-x="458" unicode="’"/><glyph d="M328 209v-152q0 -51 -12.5 -80.5t-63.5 -111.5l-74 -117h-82l129 252h-94v209h197z" glyph-name="quotesinglbase" horiz-adv-x="458" unicode="‚"/><glyph d="M131 973v151q0 51 12.5 81t63.5 112l74 117h81l-129 -252h95v-209h-197zM438 973v151q0 51 12.5 81t63.5 112l74 117h82l-129 -252h94v-209h-197z" glyph-name="quotedblleft" horiz-adv-x="765" unicode="“"/><glyph d="M328 1434v-152q0 -51 -12.5 -81t-63.5 -111l-74 -117h-82l129 252h-94v209h197zM635 1434v-152q0 -51 -12.5 -81t-63.5 -111l-74 -117h-82l129 252h-94v209h197z" glyph-name="quotedblright" horiz-adv-x="765" unicode="”"/><glyph d="M328 209v-152q0 -51 -12.5 -80.5t-63.5 -111.5l-74 -117h-82l129 252h-94v209h197zM635 209v-152q0 -51 -12.5 -80.5t-63.5 -111.5l-74 -117h-82l129 252h-94v209h197z" glyph-name="quotedblbase" horiz-adv-x="765" unicode="„"/><glyph d="M684 942h-233v-942h-136v942h-233v123h233v369h136v-369h233v-123z" glyph-name="dagger" horiz-adv-x="765" unicode="†"/><glyph d="M451 942v-430h233v-123h-233v-389h-136v389h-233v123h233v430h-233v123h233v369h136v-369h233v-123h-233z" glyph-name="daggerdbl" horiz-adv-x="765" unicode="‡"/><glyph d="M437 553q-103 0 -145 43t-42 146t43 145.5t146 42.5t145.5 -42t42.5 -146.5t-43.5 -146.5t-146.5 -42z" glyph-name="bullet" horiz-adv-x="876" unicode="•"/><glyph d="M328 0h-197v209h197v-209zM758 0h-197v209h197v-209zM1188 0h-197v209h197v-209z" glyph-name="ellipsis" horiz-adv-x="1318" unicode="…"/><glyph d="M250 1434h153q76 0 112 -35t36 -113v-270q0 -78 -36 -113t-112 -35h-153q-78 0 -113 35t-35 113v270q0 78 35 113t113 35zM1100 1434l-778 -1434h-123l778 1434h123zM440 1020v262q0 29 -10 39t-39 10h-129q-29 0 -39 -10t-10 -39v-262q0 -29 10 -39t39 -10h129 q29 0 39 10t10 39zM895 565h154q78 0 112.5 -34.5t34.5 -112.5v-271q0 -78 -35 -112.5t-112 -34.5h-154q-76 0 -111.5 35t-35.5 112v271q0 78 35.5 112.5t111.5 34.5zM1446 565h153q76 0 112 -34.5t36 -112.5v-271q0 -78 -36 -112.5t-112 -34.5h-153q-78 0 -113 35t-35 112 v271q0 78 35 112.5t113 34.5zM1085 152v262q0 29 -10 39t-39 10h-129q-29 0 -39 -10.5t-10 -38.5v-262q0 -29 10.5 -39.5t38.5 -10.5h129q29 0 39 10.5t10 39.5zM1636 152v262q0 29 -10 39t-39 10h-129q-29 0 -39 -10.5t-10 -38.5v-262q0 -29 10.5 -39.5t38.5 -10.5h129 q29 0 39 10.5t10 39.5z" glyph-name="perthousand" horiz-adv-x="1849" unicode="‰"/><glyph d="M467 1145l-289 -426l289 -424h-148l-262 383v82l262 385h148z" glyph-name="guilsinglleft" horiz-adv-x="540" unicode="‹"/><glyph d="M483 760v-82l-262 -383h-147l288 424l-288 426h147z" glyph-name="guilsinglright" horiz-adv-x="540" unicode="›"/><glyph d="M594 1434l-782 -1434h-119l782 1434h119z" glyph-name="fraction" horiz-adv-x="286" unicode="⁄"/><glyph d="M455 922h-189q-100 0 -142 42t-42 142v369q0 98 43 141t141 43h189q100 0 142 -42t42 -142v-369q0 -98 -42 -141t-142 -43zM201 1468v-356q0 -47 15 -62.5t63 -15.5h163q47 0 62.5 15.5t15.5 62.5v356q0 47 -15.5 62.5t-62.5 15.5h-163q-47 0 -62.5 -15.5t-15.5 -62.5z " glyph-name="uni2070" horiz-adv-x="720" unicode="⁰"/><glyph d="M694 1083h-116v-161h-117v161h-395l-17 91l416 485h113v-469h116v-107zM461 1190v299l-268 -299h268z" glyph-name="uni2074" horiz-adv-x="749" unicode="⁴"/><glyph d="M600 1546h-399v-223q29 27 70.5 53.5t150.5 26.5q108 0 151 -42t43 -142v-113q0 -98 -42 -141t-142 -43h-174q-98 0 -141 42t-43 142v31h119v-25q0 -47 15 -62.5t62 -15.5h150q47 0 62.5 15.5t15.5 62.5v107q0 47 -15.5 62t-62.5 15q-129 0 -219 -49l-119 37v375h518 v-113z" glyph-name="uni2075" horiz-adv-x="688" unicode="⁵"/><glyph d="M496 1452v16q0 47 -15.5 62.5t-62.5 15.5h-139q-47 0 -62.5 -15t-15.5 -63v-165q29 27 70 53t155 26t156.5 -42t42.5 -142v-92q0 -100 -42 -142t-143 -42h-174q-100 0 -142 42t-42 142v369q0 100 42 142t142 42h164q100 0 142 -42t42 -142v-23h-118zM201 1112 q0 -47 15 -62.5t63 -15.5h149q47 0 62.5 15.5t15.5 62.5v88q0 47 -15.5 62.5t-62.5 15.5q-141 0 -227 -47v-119z" glyph-name="uni2076" horiz-adv-x="702" unicode="⁶"/><glyph d="M43 1546v113h557v-88l-381 -649h-129l367 624h-414z" glyph-name="uni2077" horiz-adv-x="649" unicode="⁷"/><glyph d="M625 1449q0 -118 -74 -151q82 -26 82 -154t-42 -175t-142 -47h-189q-100 0 -142 47t-42 176t82 153q-74 33 -74 151t42 164t142 46h172q100 0 142.5 -46t42.5 -164zM428 1548h-147q-49 0 -63.5 -18.5t-14.5 -79.5t14 -79.5t64 -18.5h147q49 0 63.5 18.5t14.5 79.5 t-14.5 79.5t-63.5 18.5zM436 1247h-164q-49 0 -63 -19.5t-14 -87.5t14 -88t63 -20h164q49 0 63.5 19.5t14.5 88.5t-14.5 88t-63.5 19z" glyph-name="uni2078" horiz-adv-x="708" unicode="⁸"/><glyph d="M207 1128v-16q0 -47 15.5 -62.5t62.5 -15.5h139q47 0 62.5 15.5t15.5 62.5v166q-29 -27 -71.5 -53.5t-155.5 -26.5t-155 42t-42 142v93q0 100 42 142t142 42h174q100 0 142.5 -42t42.5 -142v-369q0 -100 -42 -142t-143 -42h-164q-100 0 -142 42t-42 142v22h119zM502 1468 q0 47 -15.5 62.5t-62.5 15.5h-150q-47 0 -62 -15t-15 -63v-88q0 -47 15 -62t62 -15q142 0 228 47v118z" glyph-name="uni2079" horiz-adv-x="702" unicode="⁹"/><glyph d="M1098 991v160q0 80 -34 113.5t-114 33.5h-409q-80 0 -114 -33.5t-34 -113.5v-182h525v-131h-525v-226h525v-131h-525v-198q0 -80 34 -114t114 -34h409q80 0 114 34t34 114v159h147v-155q0 -287 -287 -287h-426q-287 0 -286 287v194h-168v131h168v226h-168v131h168v178 q0 287 286 287h426q287 0 287 -287v-156h-147z" glyph-name="Euro" horiz-adv-x="1380" unicode="€"/><glyph d="M629 1352h-213v-656h-92v656h-211v82h516v-82zM1421 1434v-738h-84v586l-213 -481h-69l-217 481v-586h-84v738h102l231 -514l232 514h102z" glyph-name="trademark" horiz-adv-x="1533" unicode="™"/><glyph d="M205 696v615l-154 -49v102l176 70h97v-738h-119zM1032 1434l-782 -1434h-119l782 1434h119zM1350 527q0 -118 -74 -150q82 -25 82 -154t-42 -176t-142 -47h-189q-100 0 -142 47t-42 176t82 154q-74 33 -74 151t42 163.5t142 45.5h172q100 0 142.5 -46t42.5 -164z M1153 627h-147q-49 0 -63.5 -18.5t-14.5 -80t14 -80t64 -18.5h147q49 0 63.5 18.5t14.5 80t-14.5 80t-63.5 18.5zM1161 326h-164q-49 0 -63 -19.5t-14 -88.5t14 -88t63 -19h164q49 0 63.5 19.5t14.5 87.5t-14.5 88t-63.5 20z" glyph-name="oneeighth" horiz-adv-x="1433" unicode="⅛"/><glyph d="M180 913v-2q0 -66 14.5 -85t63.5 -19h156q49 0 63.5 19.5t14.5 87.5t-14.5 88t-63.5 20h-174v104h166q49 0 63 18.5t14 80t-14 80t-63 18.5h-140q-49 0 -63.5 -18.5t-14.5 -79.5v-8h-118v10q0 115 42 161t142 46h164q100 0 142 -46t42 -162t-76 -153q84 -25 84 -154 t-42 -176t-142 -47h-180q-100 0 -142.5 47.5t-42.5 167.5v2h119zM1280 1434l-782 -1434h-119l782 1434h119zM1597 527q0 -118 -73 -150q82 -25 82 -154t-42 -176t-143 -47h-188q-100 0 -142 47t-42 176t81 154q-74 33 -74 151t42.5 163.5t142.5 45.5h172q100 0 142 -46 t42 -164zM1401 627h-148q-49 0 -63 -18.5t-14 -80t14 -80t63 -18.5h148q49 0 63.5 18.5t14.5 80t-14.5 80t-63.5 18.5zM1409 326h-164q-49 0 -63.5 -19.5t-14.5 -88.5t14.5 -88t63.5 -19h164q49 0 63.5 19.5t14.5 87.5t-14.5 88t-63.5 20z" glyph-name="threeeighths" horiz-adv-x="1681" unicode="⅜"/><glyph d="M600 1321h-399v-223q29 27 70.5 53.5t150.5 26.5q108 0 151 -42t43 -143v-112q0 -98 -42 -141.5t-142 -43.5h-174q-98 0 -141 42t-43 143v30h119v-24q0 -47 15 -62.5t62 -15.5h150q47 0 62.5 15.5t15.5 62.5v106q0 47 -15.5 62.5t-62.5 15.5q-129 0 -219 -49l-119 37v375 h518v-113zM1282 1434l-782 -1434h-119l782 1434h119zM1599 527q0 -118 -73 -150q82 -25 82 -154t-42 -176t-143 -47h-188q-100 0 -142 47t-42 176t82 154q-74 33 -74 151t42 163.5t142 45.5h172q100 0 142 -46t42 -164zM1403 627h-148q-49 0 -63 -18.5t-14 -80t14 -80 t63 -18.5h148q49 0 63.5 18.5t14.5 80t-14.5 80t-63.5 18.5zM1411 326h-164q-49 0 -63.5 -19.5t-14.5 -88.5t14.5 -88t63.5 -19h164q49 0 63.5 19.5t14.5 87.5t-14.5 88t-63.5 20z" glyph-name="fiveeighths" horiz-adv-x="1683" unicode="⅝"/><glyph d="M43 1321v113h557v-88l-381 -650h-129l367 625h-414zM1079 1434l-782 -1434h-119l783 1434h118zM1397 527q0 -118 -74 -150q82 -25 82 -154t-42 -176t-142 -47h-189q-100 0 -142 47t-42 176t82 154q-74 33 -74 151t42 163.5t142 45.5h172q100 0 142.5 -46t42.5 -164z M1200 627h-147q-49 0 -63.5 -18.5t-14.5 -80t14.5 -80t63.5 -18.5h147q49 0 63.5 18.5t14.5 80t-14.5 80t-63.5 18.5zM1208 326h-164q-49 0 -63 -19.5t-14 -88.5t14 -88t63 -19h164q49 0 63.5 19.5t14.5 87.5t-14.5 88t-63.5 20z" glyph-name="seveneighths" horiz-adv-x="1480" unicode="⅞"/><glyph d="M135 801h770v-127h-770v127z" glyph-name="minus" horiz-adv-x="1040" unicode="−"/><glyph d="M1096 1106h170q287 0 286 -287v-151q0 -287 -286 -287h-170q-203 0 -240 129q-37 -129 -240 -129h-170q-287 0 -286 287v151q0 287 286 287h170q203 0 240 -129q37 129 240 129zM442 504h199q80 0 113.5 33.5t33.5 113.5v185q0 80 -33.5 113.5t-113.5 33.5h-199 q-80 0 -113.5 -34t-33.5 -113v-185q0 -80 33.5 -113.5t113.5 -33.5zM1417 651v185q0 80 -33.5 113.5t-113.5 33.5h-199q-80 0 -113.5 -34t-33.5 -113v-185q0 -80 33.5 -113.5t113.5 -33.5h199q80 0 113.5 33.5t33.5 113.5z" glyph-name="infinity" horiz-adv-x="1712" unicode="∞"/><glyph d="M905 639v-135h-448l-109 -195h-131l109 195h-191v135h264l119 213h-383v135h457l100 180h131l-100 -180h182v-135h-256l-119 -213h375z" glyph-name="notequal" horiz-adv-x="1040" unicode="≠"/><glyph d="M197 1434h692q287 0 287 -287v-199q0 -164 -136 -215q152 -43 152 -217v-229q0 -287 -287 -287h-708v1434zM344 801h537q80 0 113.5 33.5t33.5 113.5v203q0 80 -33.5 113.5t-113.5 33.5h-537v-497zM344 135h553q80 0 113.5 34t33.5 114v237q0 80 -33.5 114t-113.5 34 h-553v-533z" glyph-name="B.aalt" horiz-adv-x="1341"/><glyph d="M344 666v-666h-147v1434h147v-633h178l545 633h172l-600 -701l625 -733h-181l-561 666h-178z" glyph-name="K.aalt" horiz-adv-x="1300"/><glyph d="M344 666v-666h-147v1434h147v-633h178l545 633h172l-600 -701l625 -733h-181l-561 666h-178zM768 -143v-164q0 -35 -36 -99.5t-40 -72.5l-59 -117h-88l123 252h-80v201h180z" glyph-name="Kcommaaccent.aalt" horiz-adv-x="1300"/><glyph d="M299 506v-506h-139v1495h139v-862h119l411 473h170l-467 -537l490 -569h-178l-428 506h-117z" glyph-name="k.aalt" horiz-adv-x="1050"/><glyph d="M299 506v-506h-139v1495h139v-862h119l411 473h170l-467 -537l490 -569h-178l-428 506h-117zM633 -143v-164q0 -35 -36 -99.5t-40 -72.5l-59 -117h-88l122 252h-79v201h180z" glyph-name="kcommaaccent.aalt" horiz-adv-x="1050"/><glyph d="M270 408v-125q0 -80 34 -114t114 -34h385q80 0 113.5 34t33.5 114v241q0 80 -33.5 114t-113.5 34h-381v133h364q80 0 114 33.5t34 113.5v199q0 80 -34 113.5t-114 33.5h-352q-80 0 -113.5 -33.5t-33.5 -113.5v-125h-148v121q0 287 287 287h369q287 0 286 -287v-195 q0 -164 -135 -215q152 -43 152 -217v-233q0 -287 -287 -287h-401q-287 0 -287 287v121h147z" glyph-name="three.salt" horiz-adv-x="1232"/><glyph d="M1126 287q0 -287 -286 -287h-418q-287 0 -287 287v233q0 174 152 217q-135 51 -135 215v195q0 287 286 287h385q287 0 287 -287v-195q0 -164 -135 -215q152 -43 151 -217v-233zM299 1151v-199q0 -80 34 -113.5t113 -33.5h369q80 0 114 33.5t34 113.5v199q0 80 -34 113.5 t-114 33.5h-369q-80 0 -113.5 -33.5t-33.5 -113.5zM979 283v241q0 80 -34 114t-114 34h-401q-80 0 -113.5 -34t-33.5 -114v-241q0 -80 33.5 -114t113.5 -34h401q80 0 114 34t34 114z" glyph-name="eight.salt" horiz-adv-x="1261"/><glyph d="M455 -184h-189q-100 0 -142 42t-42 142v369q0 98 43 141t141 43h189q100 0 142 -42t42 -142v-369q0 -98 -42 -141t-142 -43zM201 362v-356q0 -47 15 -62.5t63 -15.5h163q47 0 62.5 15.5t15.5 62.5v356q0 47 -15.5 62.5t-62.5 15.5h-163q-47 0 -62.5 -15.5t-15.5 -62.5z " glyph-name="zero.inferior" horiz-adv-x="720"/><glyph d="M205 -184v614l-154 -49v102l176 70h97v-737h-119z" glyph-name="one.inferior" horiz-adv-x="438"/><glyph d="M201 332h-119v37q0 100 42 142t142 42h162q100 0 142 -43t42 -141v-80q0 -59 -33.5 -86t-127.5 -62l-197 -71q-37 -12 -50.5 -22.5t-13.5 -29.5v-90h426v-112h-544v223q0 59 33.5 86t127.5 61l197 72q37 12 50.5 22.5t13.5 28.5v53q0 47 -15.5 62.5t-62.5 15.5h-137 q-47 0 -62.5 -15t-15.5 -63v-30z" glyph-name="two.inferior" horiz-adv-x="679"/><glyph d="M180 33v-2q0 -66 14.5 -85.5t63.5 -19.5h156q49 0 63.5 19.5t14.5 88.5t-14.5 88t-63.5 19h-174v105h166q49 0 63 18.5t14 80t-14 79.5t-63 18h-140q-49 0 -63.5 -18t-14.5 -80v-8h-118v10q0 115 42 161t142 46h164q100 0 142 -46t42 -162t-76 -152q84 -25 84 -154 t-42 -176t-142 -47h-180q-100 0 -142.5 47t-42.5 168v2h119z" glyph-name="three.inferior" horiz-adv-x="686"/><glyph d="M694 -23h-116v-161h-117v161h-395l-17 91l416 485h113v-469h116v-107zM461 84v299l-268 -299h268z" glyph-name="four.inferior" horiz-adv-x="749"/><glyph d="M600 440h-399v-223q29 27 70.5 53.5t150.5 26.5q108 0 151 -42t43 -142v-113q0 -98 -42 -141t-142 -43h-174q-98 0 -141 42t-43 142v31h119v-25q0 -47 15 -62.5t62 -15.5h150q47 0 62.5 15.5t15.5 62.5v107q0 47 -15.5 62t-62.5 15q-129 0 -219 -49l-119 37v375h518v-113 z" glyph-name="five.inferior" horiz-adv-x="688"/><glyph d="M496 346v16q0 47 -15.5 62.5t-62.5 15.5h-139q-47 0 -62.5 -15t-15.5 -63v-165q29 27 70 53t155 26t156.5 -41.5t42.5 -142.5v-92q0 -100 -42 -142t-143 -42h-174q-100 0 -142 42t-42 142v369q0 100 42 142t142 42h164q100 0 142 -42t42 -142v-23h-118zM201 6 q0 -47 15 -62.5t63 -15.5h149q47 0 62.5 15.5t15.5 62.5v88q0 47 -15.5 62.5t-62.5 15.5q-141 0 -227 -47v-119z" glyph-name="six.inferior" horiz-adv-x="702"/><glyph d="M43 440v113h557v-88l-381 -649h-129l367 624h-414z" glyph-name="seven.inferior" horiz-adv-x="649"/><glyph d="M625 343q0 -118 -74 -150q82 -25 82 -154t-42 -176t-142 -47h-189q-100 0 -142 47t-42 176t82 154q-74 33 -74 151t42 163.5t142 45.5h172q100 0 142.5 -46t42.5 -164zM428 442h-147q-49 0 -63.5 -18t-14.5 -79.5t14 -80t64 -18.5h147q49 0 63.5 18.5t14.5 80t-14.5 79.5 t-63.5 18zM436 141h-164q-49 0 -63 -19.5t-14 -87.5t14 -88t63 -20h164q49 0 63.5 19.5t14.5 88.5t-14.5 88t-63.5 19z" glyph-name="eight.inferior" horiz-adv-x="708"/><glyph d="M207 23v-17q0 -47 15.5 -62.5t62.5 -15.5h139q47 0 62.5 15.5t15.5 62.5v166q-29 -27 -71.5 -53.5t-155.5 -26.5t-155 42t-42 142v93q0 100 42 142t142 42h174q100 0 142.5 -42t42.5 -142v-369q0 -100 -42 -142t-143 -42h-164q-100 0 -142 42t-42 142v23h119zM502 362 q0 47 -15.5 62.5t-62.5 15.5h-150q-47 0 -62 -15t-15 -63v-88q0 -47 15 -62t62 -15q142 0 228 47v118z" glyph-name="nine.inferior" horiz-adv-x="702"/><glyph d="M860 0h-411q-287 0 -287 287v860q0 287 287 287h411q287 0 287 -287v-860q0 -287 -287 -287zM309 1151v-868q0 -80 34 -114t114 -34h395q80 0 113.5 34t33.5 114v868q0 80 -33.5 113.5t-113.5 33.5h-395q-80 0 -114 -33.5t-34 -113.5z" glyph-name="zero.tnum"/><glyph d="M1106 0h-881v135h379v1159l-379 -102v139l377 103h150v-1299h354v-135z" glyph-name="one.tnum"/><glyph d="M346 1014h-147v133q0 287 286 287h344q287 0 287 -287v-176q0 -74 -34.5 -125.5t-106.5 -90t-154 -79.5l-348 -174q-80 -41 -113.5 -68.5t-33.5 -71.5v-227h794v-135h-942v362q0 75 36 127.5t106.5 89.5t152.5 78l348 174q80 39 114 68t34 72v180q0 80 -34 113.5 t-114 33.5h-327q-80 0 -114 -33.5t-34 -113.5v-137z" glyph-name="two.tnum"/><glyph d="M309 408v-23q0 -152 32 -201t116 -49h385q82 0 114.5 57.5t32.5 211t-32.5 211t-114.5 57.5h-381v133h364q84 0 116 49t32 198t-32 197.5t-116 48.5h-352q-84 0 -115.5 -49t-31.5 -200v-23h-148v18q0 217 67.5 303.5t219.5 86.5h369q152 0 219 -85t67 -269t-33.5 -250 t-101.5 -93q80 -23 116 -94t36 -269t-68 -286t-219 -88h-401q-152 0 -219.5 86t-67.5 303v19h147z" glyph-name="three.tnum"/><glyph d="M1210 369h-215v-369h-147v369h-737l-21 114l737 951h168v-930h215v-135zM848 504v749l-584 -749h584z" glyph-name="four.tnum"/><glyph d="M352 1298v-522q88 80 177 120t265 40t257.5 -68.5t81.5 -218.5v-362q0 -287 -287 -287h-367q-287 0 -286 287v121h147v-125q0 -80 34 -114t113 -34h351q80 0 113.5 34t33.5 114v370q0 82 -44 115t-177 33t-226.5 -33t-185.5 -96l-147 47v715h907v-136h-760z" glyph-name="five.tnum"/><glyph d="M971 1032v119q0 147 -148 147h-334q-147 0 -147 -147v-416q88 80 179 120t271 40t263.5 -68.5t83.5 -218.5v-321q0 -287 -287 -287h-371q-287 0 -286 287v860q0 287 286 287h350q287 0 287 -287v-115h-147zM342 283q0 -80 34 -114t113 -34h355q80 0 113.5 34t33.5 114 v329q0 82 -45 115t-184 33t-233.5 -33t-186.5 -96v-348z" glyph-name="six.tnum"/><glyph d="M150 1298v136h974v-99l-626 -1335h-154l614 1298h-808z" glyph-name="seven.tnum"/><glyph d="M1151 374q0 -198 -67.5 -286t-219.5 -88h-418q-152 0 -219 88t-67 286t35.5 269.5t115.5 93.5q-68 27 -101.5 93t-33.5 250t67.5 269t219.5 85h385q152 0 219.5 -85t67.5 -269t-34 -250t-102 -93q80 -23 116 -94t36 -269zM840 1298h-369q-84 0 -115.5 -49t-31.5 -197 t31.5 -197.5t115.5 -49.5h369q84 0 115.5 49t31.5 198t-31.5 197.5t-115.5 48.5zM455 135h401q82 0 115 57.5t33 211t-33 211t-115 57.5h-401q-82 0 -115 -57.5t-33 -211t33 -211t115 -57.5z" glyph-name="eight.tnum"/><glyph d="M338 401v-118q0 -80 34 -114t113 -34h334q80 0 114 34t34 114v432q-88 -80 -179.5 -120t-271.5 -40t-263 68.5t-83 218.5v305q0 287 287 287h370q287 0 287 -287v-860q0 -287 -287 -287h-350q-287 0 -287 287v114h148zM967 1151q0 80 -34 113.5t-114 33.5h-354 q-80 0 -114 -33.5t-34 -113.5v-313q0 -82 45.5 -115t184.5 -33t233.5 33t186.5 96v332z" glyph-name="nine.tnum"/><glyph d="M455 0h-189q-100 0 -142 42t-42 142v369q0 98 43 141t141 43h189q100 0 142 -42t42 -142v-369q0 -98 -42 -141t-142 -43zM201 547v-357q0 -47 15 -62t63 -15h163q47 0 62.5 15t15.5 62v357q0 47 -15.5 62.5t-62.5 15.5h-163q-47 0 -62.5 -15.5t-15.5 -62.5z" glyph-name="zero.dnom" horiz-adv-x="720"/><glyph d="M205 0v614l-154 -49v103l176 69h97v-737h-119z" glyph-name="one.dnom" horiz-adv-x="438"/><glyph d="M201 516h-119v37q0 100 42 142t142 42h162q100 0 142 -43t42 -141v-80q0 -59 -33.5 -86t-127.5 -61l-197 -72q-37 -12 -50.5 -22.5t-13.5 -28.5v-90h426v-113h-544v223q0 59 33.5 86t127.5 62l197 71q37 12 50.5 22.5t13.5 29.5v53q0 47 -15.5 62.5t-62.5 15.5h-137 q-47 0 -62.5 -15.5t-15.5 -62.5v-31z" glyph-name="two.dnom" horiz-adv-x="679"/><glyph d="M180 217v-2q0 -66 14.5 -85t63.5 -19h156q49 0 63.5 19.5t14.5 87.5t-14.5 88t-63.5 20h-174v104h166q49 0 63 18.5t14 80t-14 80t-63 18.5h-140q-49 0 -63.5 -18.5t-14.5 -80.5v-8h-118v10q0 115 42 161t142 46h164q100 0 142 -46t42 -162t-76 -152q84 -25 84 -154 t-42 -176t-142 -47h-180q-100 0 -142.5 47t-42.5 168v2h119z" glyph-name="three.dnom" horiz-adv-x="686"/><glyph d="M694 162h-116v-162h-117v162h-395l-17 90l416 485h113v-469h116v-106zM461 268v299l-268 -299h268z" glyph-name="four.dnom" horiz-adv-x="749"/><glyph d="M600 625h-399v-224q29 27 69 53.5t150 26.5t153 -42t43 -142v-113q0 -98 -42 -141t-142 -43h-174q-98 0 -141 42t-43 142v31h119v-25q0 -47 15 -62t62 -15h150q47 0 62.5 15t15.5 62v107q0 47 -15.5 62.5t-62.5 15.5q-129 0 -219 -49l-119 36v375h518v-112z" glyph-name="five.dnom" horiz-adv-x="688"/><glyph d="M496 530v17q0 47 -15.5 62.5t-62.5 15.5h-139q-47 0 -62.5 -15.5t-15.5 -62.5v-166q29 27 70.5 53.5t155.5 26.5q113 0 155.5 -42t42.5 -143v-92q0 -100 -42 -142t-143 -42h-174q-100 0 -142 42t-42 142v369q0 100 42 142t142 42h164q100 0 142 -42t42 -142v-23h-118z M201 190q0 -47 15 -62t63 -15h149q47 0 62.5 15t15.5 62v89q0 47 -15.5 62t-62.5 15q-141 0 -227 -47v-119z" glyph-name="six.dnom" horiz-adv-x="702"/><glyph d="M43 625v112h557v-88l-381 -649h-129l367 625h-414z" glyph-name="seven.dnom" horiz-adv-x="649"/><glyph d="M625 527q0 -118 -74 -150q82 -25 82 -154t-42 -176t-142 -47h-189q-100 0 -142 47t-42 176t82 154q-74 33 -74 151t42 163.5t142 45.5h172q100 0 142.5 -46t42.5 -164zM428 627h-147q-49 0 -63.5 -18.5t-14.5 -80t14 -80t64 -18.5h147q49 0 63.5 18.5t14.5 80t-14.5 80 t-63.5 18.5zM436 326h-164q-49 0 -63 -19.5t-14 -88.5t14 -88t63 -19h164q49 0 63.5 19.5t14.5 87.5t-14.5 88t-63.5 20z" glyph-name="eight.dnom" horiz-adv-x="708"/><glyph d="M207 207v-17q0 -47 15.5 -62t62.5 -15h139q47 0 62.5 15t15.5 62v166q-29 -27 -71.5 -53.5t-155.5 -26.5t-155 42t-42 143v92q0 100 42 142t142 42h174q100 0 142.5 -42t42.5 -142v-369q0 -100 -42 -142t-143 -42h-164q-100 0 -142 42t-42 142v23h119zM502 547 q0 47 -15.5 62.5t-62.5 15.5h-150q-47 0 -62 -15.5t-15 -62.5v-88q0 -47 15 -62.5t62 -15.5q142 0 228 47v119z" glyph-name="nine.dnom" horiz-adv-x="702"/><glyph d="M455 696h-189q-100 0 -142 42t-42 143v368q0 98 43 141.5t141 43.5h189q100 0 142 -42t42 -143v-368q0 -98 -42 -141.5t-142 -43.5zM201 1243v-356q0 -47 15 -62.5t63 -15.5h163q47 0 62.5 15.5t15.5 62.5v356q0 47 -15.5 62.5t-62.5 15.5h-163q-47 0 -62.5 -15.5 t-15.5 -62.5z" glyph-name="zero.numr" horiz-adv-x="720"/><glyph d="M205 696v615l-154 -49v102l176 70h97v-738h-119z" glyph-name="one.numr" horiz-adv-x="438"/><glyph d="M201 1212h-119v37q0 100 42 142.5t142 42.5h162q100 0 142 -43t42 -142v-80q0 -59 -33.5 -85.5t-127.5 -61.5l-197 -72q-37 -12 -50.5 -22t-13.5 -29v-90h426v-113h-544v224q0 59 33.5 85.5t127.5 61.5l197 72q37 12 50.5 22t13.5 29v53q0 47 -15.5 62.5t-62.5 15.5h-137 q-47 0 -62.5 -15.5t-15.5 -62.5v-31z" glyph-name="two.numr" horiz-adv-x="679"/><glyph d="M180 913v-2q0 -66 14.5 -85t63.5 -19h156q49 0 63.5 19.5t14.5 87.5t-14.5 88t-63.5 20h-174v104h166q49 0 63 18.5t14 80t-14 80t-63 18.5h-140q-49 0 -63.5 -18.5t-14.5 -79.5v-8h-118v10q0 115 42 161t142 46h164q100 0 142 -46t42 -162t-76 -153q84 -25 84 -154 t-42 -176t-142 -47h-180q-100 0 -142.5 47.5t-42.5 167.5v2h119z" glyph-name="three.numr" horiz-adv-x="686"/><glyph d="M694 858h-116v-162h-117v162h-395l-17 90l416 486h113v-469h116v-107zM461 965v299l-268 -299h268z" glyph-name="four.numr" horiz-adv-x="749"/><glyph d="M600 1321h-399v-223q29 27 70.5 53.5t150.5 26.5q108 0 151 -42t43 -143v-112q0 -98 -42 -141.5t-142 -43.5h-174q-98 0 -141 42t-43 143v30h119v-24q0 -47 15 -62.5t62 -15.5h150q47 0 62.5 15.5t15.5 62.5v106q0 47 -15.5 62.5t-62.5 15.5q-129 0 -219 -49l-119 37v375 h518v-113z" glyph-name="five.numr" horiz-adv-x="688"/><glyph d="M496 1227v16q0 47 -15.5 62.5t-62.5 15.5h-139q-47 0 -62.5 -15.5t-15.5 -62.5v-166q29 27 69 53.5t155 26.5t157.5 -42t42.5 -142v-92q0 -100 -42 -142.5t-143 -42.5h-174q-100 0 -142 42t-42 143v368q0 100 42 142.5t142 42.5h164q100 0 142 -42t42 -143v-22h-118z M201 887q0 -47 15 -62.5t63 -15.5h149q47 0 62.5 15.5t15.5 62.5v88q0 47 -15.5 62.5t-62.5 15.5q-141 0 -227 -47v-119z" glyph-name="six.numr" horiz-adv-x="702"/><glyph d="M43 1321v113h557v-88l-381 -650h-129l367 625h-414z" glyph-name="seven.numr" horiz-adv-x="649"/><glyph d="M625 1224q0 -118 -74 -151q82 -25 82 -154t-42 -176t-142 -47h-189q-100 0 -142 48t-42 176t82 153q-74 33 -74 151t42 164t142 46h172q100 0 142.5 -46t42.5 -164zM428 1323h-147q-49 0 -63.5 -18.5t-14.5 -80t14 -80t64 -18.5h147q49 0 63.5 18.5t14.5 80t-14.5 80 t-63.5 18.5zM436 1022h-164q-49 0 -63 -19.5t-14 -88.5t14 -88t63 -19h164q49 0 63.5 19.5t14.5 87.5t-14.5 88t-63.5 20z" glyph-name="eight.numr" horiz-adv-x="708"/><glyph d="M207 903v-16q0 -47 15.5 -62.5t62.5 -15.5h139q47 0 62.5 15.5t15.5 62.5v166q-29 -27 -70 -53.5t-156 -26.5q-114 0 -156 42t-42 142v92q0 100 42 142.5t142 42.5h174q100 0 142.5 -42t42.5 -143v-368q0 -100 -42 -142.5t-143 -42.5h-164q-100 0 -142 42t-42 143v22h119 zM502 1243q0 47 -15.5 62.5t-62.5 15.5h-150q-47 0 -62 -15.5t-15 -62.5v-88q0 -47 15 -62.5t62 -15.5q142 0 228 47v119z" glyph-name="nine.numr" horiz-adv-x="702"/><glyph d="M1114 557v-123h-254l-125 -434h-137l125 434h-307l-125 -434h-137l125 434h-226v123h260l111 377h-231v123h266l108 377h138l-109 -377h307l109 377h137l-109 -377h213v-123h-247l-111 -377h219zM866 934h-307l-108 -377h307z" glyph-name="numbersign.aalt"/><glyph d="M1020 1298h-170q-80 0 -114 -33.5t-34 -113.5v-270h297v-127h-297v-467q0 -287 -286 -287h-129v135h121q80 0 113.5 34t33.5 114v471h-254v127h254v266q0 287 287 287h178v-136z" glyph-name="florin.aalt"/><glyph d="M938 889v69q0 80 -34 114t-113 34h-74v-766h74q80 0 113.5 34t33.5 113v70h147v-65q0 -287 -286 -287h-78v-205h-119v205h-78q-287 0 -286 287v462q0 287 286 287h78v193h119v-193h78q287 0 286 -287v-65h-147zM606 1106h-74q-80 0 -113.5 -34t-33.5 -114v-471 q0 -80 34 -113.5t113 -33.5h74v766z" glyph-name="cent.aalt"/><glyph d="M1057 897v-328q0 -100 -33 -163l150 -150l-93 -94l-151 151q-66 -31 -160 -30h-231q-96 0 -160 30l-152 -151l-92 94l150 150q-33 63 -33 163v328q0 94 31 160l-148 147l92 94l148 -147q63 33 164 33h231q100 0 164 -33l147 147l93 -94l-148 -147q31 -66 31 -160z M543 414h223q80 0 113.5 33.5t33.5 113.5v344q0 80 -33.5 114t-113.5 34h-223q-80 0 -114 -34t-34 -114v-344q0 -80 34 -113.5t114 -33.5z" glyph-name="currency.aalt"/><glyph d="M868 0h-145v-188h-131v188h-146q-150 0 -218 84t-68 291v57h147v-67q0 -137 32 -183.5t116 -46.5h141v539l-133 31q-78 18 -120 34.5t-110.5 70t-68.5 257.5q0 203 68.5 285t222.5 82h137v188h131v-188h119q150 0 218 -82t68 -281v-55h-147v65q0 129 -33 173t-114 44 h-115v-510l141 -32q78 -18 119 -34.5t110.5 -73t69.5 -268.5t-68.5 -296t-222.5 -84zM596 1298h-133q-82 0 -115 -44t-33 -174t38 -173t173 -73l70 -17v481zM719 135h141q84 0 116 46.5t32 186.5t-34 182t-171 75l-84 20v-510z" glyph-name="dollar.aalt"/><glyph d="M1085 991v160q0 80 -33.5 113.5t-113.5 33.5h-397q-80 0 -114 -33.5t-34 -113.5v-182h525v-131h-525v-226h525v-131h-525v-198q0 -80 34 -114t114 -34h397q80 0 113.5 34t33.5 114v159h148v-155q0 -287 -287 -287h-414q-287 0 -286 287v194h-168v131h168v226h-168v131 h168v178q0 287 286 287h414q287 0 287 -287v-156h-148z" glyph-name="Euro.aalt"/><glyph d="M1169 135v-135h-1067v135h127q23 0 32 9.5t9 31.5v471h-168v131h168v369q0 287 287 287h317q287 0 287 -287v-156h-147v160q0 80 -34 113.5t-114 33.5h-301q-80 0 -113.5 -33.5t-33.5 -113.5v-373h442v-131h-442v-512h751z" glyph-name="sterling.aalt"/><glyph d="M1073 651v-127h-338l-8 -16v-107h346v-127h-346v-274h-147v274h-347v127h347v107l-9 16h-338v127h267l-430 783h159l426 -781l426 781h156l-430 -783h266z" glyph-name="yen.aalt"/><glyph d="M1280 672h-166v-385q0 -287 -287 -287h-391q-287 0 -286 287v229q0 178 151 221q-135 51 -135 221v189q0 287 287 287h344q287 0 286 -287v-129h-147v133q0 80 -34 113.5t-114 33.5h-327q-80 0 -114 -33.5t-34 -113.5v-199q0 -80 34 -113.5t114 -33.5h819v-133zM967 672 h-523q-80 0 -113.5 -34t-33.5 -114v-241q0 -80 34 -114t113 -34h375q80 0 114 34t34 114v389z" glyph-name="ampersand.aalt" horiz-adv-x="1347"/></font>
</defs>
</svg>
