<?xml version="1.0" encoding="UTF-8" standalone="no"?>
<svg width="180px" height="36px" viewBox="0 0 180 36" version="1.1" xmlns="http://www.w3.org/2000/svg" xmlns:xlink="http://www.w3.org/1999/xlink">
    <!-- Generator: Sketch 3.6.1 (26313) - http://www.bohemiancoding.com/sketch -->
    <title>connect</title>
    <desc>Created with Sketch.</desc>
    <defs></defs>
    <g id="Page-1" stroke="none" stroke-width="1" fill="none" fill-rule="evenodd">
        <g id="connect">
            <g id="instagram" transform="translate(153.000000, 8.000000)" fill="#FFFFFF">
                <path d="M12.3286672,6 L19,6 L19,0 L0,0 L0,6 L6.67133283,6 C7.44419589,5.37460006 8.42835168,5 9.5,5 C10.5716483,5 11.5558041,5.37460006 12.3286672,6 Z M14,2 L17,2 L17,5 L14,5 L14,2 Z" id="Rectangle-7"></path>
                <circle id="Oval-1-Copy-2" cx="9.5" cy="9.5" r="2.5"></circle>
                <path d="M5.25605856,8 L0,8 L0,19 L19,19 L19,8 L13.7439414,8 C13.9097687,8.46916839 14,8.97404687 14,9.5 C14,11.9852814 11.9852814,14 9.5,14 C7.01471863,14 5,11.9852814 5,9.5 C5,8.97404687 5.09023133,8.46916839 5.25605856,8 Z" id="Rectangle-7-Copy"></path>
            </g>
            <g id="linkedin" transform="translate(117.000000, 9.000000)" fill="#FFFFFF">
                <path d="M19,18 L14.9276085,18 L14.9276085,11.5012453 C14.9276085,9.86824408 14.3366904,8.75454545 12.8650124,8.75454545 C11.7371004,8.75454545 11.0686665,9.50660025 10.7747053,10.2317559 C10.6664827,10.4914072 10.6402696,10.8534247 10.6402696,11.2154421 L10.6402696,18 L6.56787812,18 C6.56787812,18 6.6218022,6.99377335 6.56787812,5.85541719 L10.6402696,5.85541719 L10.6402696,7.57733499 C11.1813828,6.7494396 12.1467736,5.56924035 14.3101029,5.56924035 C16.9902046,5.56924035 19,7.30460772 19,11.035741 L19,18 Z M2.27904135,4.19551681 L2.25095589,4.19551681 C0.884879183,4.19551681 0,3.2633873 0,2.09738481 C0,0.906724782 0.911092278,0 2.30375655,0 C3.69791872,0 4.55508692,0.906724782 4.58130001,2.09738481 C4.58130001,3.26488169 3.69791872,4.19551681 2.27904135,4.19551681 L2.27904135,4.19551681 Z M4.31504986,18 L0.241160471,18 L0.241160471,5.85541719 L4.31504986,5.85541719 L4.31504986,18 Z" id="Fill-10"></path>
            </g>
            <g id="behance" transform="translate(77.000000, 10.000000)" fill="#FFFFFF">
                <path d="M23.731751,9.17827727 C23.6732513,8.33171135 23.3935027,7.69156938 22.8910054,7.25253901 C22.393008,6.81388808 21.7705112,6.5930448 21.0261401,6.5930448 C20.2176443,6.5930448 19.5936476,6.82868686 19.1496499,7.29276132 C18.7030272,7.75380014 18.4247787,8.38217897 18.3104043,9.17827727 L23.731751,9.17827727 Z M26.8929844,8.86105221 C26.974734,9.41657552 27.0114838,10.2229191 26.9968589,11.2785652 L18.2357797,11.2785652 C18.2841544,12.5011718 18.7015273,13.3583625 19.4923981,13.8474811 C19.9701456,14.1540814 20.5487676,14.3054843 21.2267641,14.3054843 C21.9418853,14.3054843 22.5246323,14.1214482 22.9731299,13.7465458 C23.2176286,13.5465726 23.4328775,13.264637 23.6203765,12.9102252 L26.8314848,12.9102252 C26.7463602,13.6338475 26.3597372,14.3658177 25.6652409,15.1118279 C24.5886215,16.2942122 23.0785044,16.8888194 21.1390145,16.8888194 C19.5377729,16.8888194 18.1259053,16.3879378 16.8996617,15.3903484 C15.6779181,14.3897234 15.0659213,12.7652731 15.0659213,10.5124439 C15.0659213,8.40001339 15.6164184,6.78277271 16.7211626,5.65768621 C17.8300318,4.52994353 19.2625243,3.96948729 21.0261401,3.96948729 C22.0720096,3.96948729 23.0155047,4.15769737 23.8562503,4.53867101 C24.6954959,4.91964465 25.3869923,5.51842593 25.9333645,6.34108614 C26.4268619,7.06736457 26.7448602,7.90482355 26.8929844,8.86105221 L26.8929844,8.86105221 Z M10.2288215,11.6253878 C10.2288215,10.7420147 9.8729484,10.1329881 9.16120212,9.80513828 C8.7625792,9.61844602 8.20008214,9.52358206 7.4808359,9.5163724 L3.87447975,9.5163724 L3.87447975,14.0474543 L7.42533619,14.0474543 C8.15320739,14.0474543 8.71870443,13.9510725 9.1259523,13.749202 C9.86132346,13.3788532 10.2288215,12.6730653 10.2288215,11.6253878 L10.2288215,11.6253878 Z M3.87447975,6.70270753 L7.42946117,6.70270753 C8.16070735,6.70270753 8.75095426,6.56192942 9.20507689,6.28037321 C9.66069951,6.00033481 9.88607333,5.50210933 9.88607333,4.7860762 C9.88607333,3.99453137 9.5856999,3.47012343 8.98382804,3.21778532 C8.46670575,3.04323564 7.80445921,2.95102788 7.0019634,2.95102788 L3.87447975,2.95102788 L3.87447975,6.70270753 Z M13.1148065,9.37825049 C13.5513042,10.0631682 13.769553,10.8930381 13.769553,11.8682395 C13.769553,12.8779715 13.5228043,13.7818352 13.0225569,14.5809692 C12.7045586,15.1099306 12.3089357,15.5565501 11.8345631,15.9162742 C11.2998159,16.3329167 10.6653193,16.6175085 9.93744806,16.7700498 C9.20807687,16.9229705 8.41683101,17 7.56596045,17 L0,17 L0,0 L8.11383259,0 C10.1586969,0.0341510234 11.6088143,0.632932301 12.4641849,1.81114261 C12.9783072,2.53324703 13.2333058,3.39878574 13.2333058,4.40662039 C13.2333058,5.44594987 12.9756822,6.27733756 12.4570599,6.90875204 C12.1683114,7.26316377 11.7419386,7.58608067 11.1768166,7.87674382 C12.0321871,8.19396888 12.6809337,8.69219437 13.1148065,9.37825049 L13.1148065,9.37825049 Z M24.3834976,2.40574987 L17.6174079,2.40574987 L17.6174079,0.705408361 L24.3834976,0.705408361 L24.3834976,2.40574987 Z" id="Fill-1"></path>
            </g>
            <path d="M62.989938,13.9304553 C62.9029179,15.8463489 61.5411702,18.4653545 58.9141027,21.7886306 C56.1953112,25.2636491 53.8916293,27 52.0089367,27 C50.8447483,27 49.858128,25.9435944 49.0514278,23.8226747 C48.5116677,21.878981 47.9754355,19.934129 47.4368514,17.9950687 C46.8382939,15.874149 46.1962263,14.8142684 45.5094728,14.8142684 C45.3601274,14.8142684 44.8380065,15.123545 43.9407583,15.7420983 L43,14.5490086 C43.9854443,13.6976291 44.9567773,12.8427745 45.9139988,11.9902367 C47.2275326,10.8701224 48.2141529,10.2840026 48.8726837,10.2226106 C50.423759,10.0743431 51.3821565,11.1203237 51.7431725,13.3559189 C52.1277074,15.7710568 52.3981755,17.2734232 52.5475208,17.8618596 C52.9967329,19.8634703 53.4882791,20.861959 54.0268633,20.861959 C54.4431488,20.861959 55.0722809,20.2156055 55.9095558,18.9217403 C56.7456548,17.6255584 57.192515,16.6398115 57.2536643,15.9610245 C57.3736109,14.8432269 56.9255748,14.2872239 55.9095558,14.2872239 C55.430945,14.2872239 54.9370469,14.3868411 54.4302134,14.5953422 C55.4180096,11.4446588 57.2995262,9.91449227 60.0782911,10.0036844 C62.1385517,10.0604431 63.1110606,11.3716834 62.989938,13.9304553" id="vimeo" fill="#FEFEFE"></path>
            <path d="M14,14.9712106 L15.93,14.9712106 L15.93,13.1612106 C15.8413639,12.1893559 16.058097,11.2140567 16.55,10.3712106 C17.2547036,9.44410685 18.3780909,8.93313467 19.54,9.01121064 C20.7035706,8.96173522 21.8683163,9.07619 23,9.35121064 L22.52,12.1112106 C22.0109448,11.9730288 21.4872741,11.8958209 20.96,11.8812106 C20.21,11.8812106 19.54,12.1412106 19.54,12.8612106 L19.54,14.9712106 L22.62,14.9712106 L22.4,17.6612106 L19.54,17.6612106 L19.54,27.0212106 L15.93,27.0212106 L15.93,17.6612106 L14,17.6612106 L14,14.9712106 L14,14.9712106 Z" id="facebook" fill="#FFFFFF"></path>
        </g>
    </g>
</svg>