<?xml version="1.0" encoding="UTF-8" standalone="no"?>
<svg width="156px" height="50px" viewBox="0 0 156 50" version="1.1" xmlns="http://www.w3.org/2000/svg" xmlns:xlink="http://www.w3.org/1999/xlink" xmlns:sketch="http://www.bohemiancoding.com/sketch/ns">
    <!-- Generator: Sketch 3.5.2 (25235) - http://www.bohemiancoding.com/sketch -->
    <title>footer-logo</title>
    <desc>Created with Sketch.</desc>
    <defs></defs>
    <g id="Page-1" stroke="none" stroke-width="1" fill="none" fill-rule="evenodd" sketch:type="MSPage">
        <g id="footer-logo" sketch:type="MSArtboardGroup" fill="#FFFFFF">
            <g id="logo" sketch:type="MSLayerGroup" transform="translate(8.000000, 9.000000)">
                <path d="M139.60524,0.59375 L131.040702,0.59375 L125.014517,0.59375 L116.449978,0.59375 L116.449978,6.582 L125.014517,6.582 L125.014517,33 L131.040702,33 L131.040702,18.747625 L131.040702,14.918375 L131.040702,6.715875 L131.040702,6.582 L139.60524,6.582 L139.60524,0.59375 Z" id="Fill-12" sketch:type="MSShapeGroup"></path>
                <path d="M107.92714,9.4288625 L113.296817,0.5931125 L106.254863,0.5931125 L98.2270785,13.8021125 L92.7697246,13.8021125 L92.7697246,6.7173625 L92.7697246,3.8932375 L92.7697246,0.5931125 L86.74354,0.5931125 L86.74354,32.9993625 L92.7697246,32.9993625 L92.7697246,19.7903625 L98.2270785,19.7903625 L106.254863,32.9993625 L113.296817,32.9993625 L107.92714,24.1636125 L105.861386,20.7657375 L103.45134,16.7962375 L105.861386,12.8288625 L107.92714,9.4288625 Z" id="Fill-4" sketch:type="MSShapeGroup"></path>
                <path d="M73.4570646,19.1677375 L65.8847723,19.1677375 L69.6698492,6.9681125 L73.4570646,19.1677375 Z M65.3416031,0.5931125 L55.2801415,32.9993625 L61.5907415,32.9993625 L63.1454031,27.9907375 L64.0264492,25.1559875 L75.3175262,25.1559875 L76.1964338,27.9907375 L77.7532338,32.9993625 L84.0595569,32.9993625 L74.0002338,0.5931125 L65.3416031,0.5931125 Z" id="Fill-9" sketch:type="MSShapeGroup"></path>
                <path d="M30.2952123,0.59375 L29.5424738,0.59375 L29.5424738,9.31475 L29.5424738,12.950625 L29.5424738,15.031 L29.5424738,19.325625 L29.5424738,24.585 L29.5424738,33 L30.2952123,33 L52.6998738,33 L52.6998738,27.36025 L52.6998738,27.01175 L35.5707969,27.01175 L35.5707969,24.585 L35.5707969,19.791 L52.6998738,19.791 L52.6998738,13.80275 L35.5707969,13.80275 L35.5707969,12.950625 L35.5707969,9.656875 L35.5707969,9.31475 L35.5707969,6.582 L52.6998738,6.582 L52.6998738,6.2335 L52.6998738,0.59375 L35.5707969,0.59375 L30.2952123,0.59375 Z" id="Fill-7" sketch:type="MSShapeGroup"></path>
                <path d="M19.29796,20.7657375 L18.7098831,19.7967375 L18.9301446,19.7967375 C23.2519754,19.7967375 26.0640523,16.9513625 26.0640523,12.6567375 L26.0640523,10.3128625 L26.0640523,10.0769875 L26.0640523,7.7309875 C26.0640523,3.4384875 23.2519754,0.5931125 18.9301446,0.5931125 L0.999144615,0.5931125 L0.999144615,9.3162375 L0.999144615,10.0769875 L0.999144615,10.3128625 L0.999144615,19.7967375 L0.999144615,32.9993625 L7.02746769,32.9993625 L7.02746769,22.5826125 L7.02746769,19.7967375 L7.02746769,19.7839875 L7.02746769,13.8063625 L7.02746769,13.7914875 L7.02746769,12.3103625 L7.02746769,11.7281125 L7.02746769,10.3128625 L7.02746769,10.0769875 L7.02746769,9.3162375 L7.02746769,6.5834875 L13.5305292,6.5834875 L18.2522523,6.5834875 C18.7547908,6.6132375 20.0378677,6.9171125 20.0378677,9.1696125 L20.0378677,9.7943625 L20.0378677,10.0769875 L20.0378677,10.3128625 L20.0378677,10.5954875 L20.0378677,11.2202375 C20.0378677,13.4727375 18.7547908,13.7766125 18.2522523,13.8063625 L15.0702215,13.8063625 L13.5305292,13.8063625 L13.0750369,13.8063625 L8.02826769,13.8063625 L19.6935754,32.9993625 L26.7333908,32.9993625 L21.3637138,24.1636125 L19.29796,20.7657375 Z" id="Fill-1" sketch:type="MSShapeGroup"></path>
            </g>
        </g>
    </g>
</svg>