<?xml version="1.0" encoding="UTF-8" standalone="no"?>
<svg width="50px" height="50px" viewBox="0 0 50 50" version="1.1" xmlns="http://www.w3.org/2000/svg" xmlns:xlink="http://www.w3.org/1999/xlink" xmlns:sketch="http://www.bohemiancoding.com/sketch/ns">
    <!-- Generator: Sketch 3.5.2 (25235) - http://www.bohemiancoding.com/sketch -->
    <title>mark</title>
    <desc>Created with Sketch.</desc>
    <defs>
        <path id="path-1" d="M0,0.0937684211 L26.91252,0.0937684211 L26.91252,34 L0,34 L0,0.0937684211 Z"></path>
    </defs>
    <g id="Page-1" stroke="none" stroke-width="1" fill="none" fill-rule="evenodd" sketch:type="MSPage">
        <g id="mark" sketch:type="MSArtboardGroup">
            <g sketch:type="MSLayerGroup" transform="translate(12.000000, 8.000000)">
                <mask id="mask-2" sketch:name="Clip 2" fill="white">
                    <use xlink:href="#path-1"></use>
                </mask>
                <g id="Clip-2"></g>
                <path d="M19.137816,21.1986421 L18.520056,20.1865158 L18.754056,20.1865158 C23.270256,20.1865158 26.211456,17.2077579 26.211456,12.7172526 L26.211456,10.2638842 L26.211456,10.0165789 L26.211456,7.56356842 C26.211456,3.07127368 23.270256,0.0939473684 18.754056,0.0939473684 L-0.000144,0.0939473684 L-0.000144,9.22026316 L-0.000144,10.0165789 L-0.000144,10.2638842 L-0.000144,20.1865158 L-0.000144,34.0001789 L6.302736,34.0001789 L6.302736,23.1004947 L6.302736,20.1865158 L6.302736,20.1736316 L6.302736,13.9201368 L6.302736,13.9033158 L6.302736,12.3529158 L6.302736,11.7444947 L6.302736,10.2638842 L6.302736,10.0165789 L6.302736,9.22026316 L6.302736,6.36068421 L13.101336,6.36068421 L18.040896,6.36068421 C18.570456,6.39289474 19.906056,6.71070526 19.906056,9.06744211 L19.906056,9.72095789 L19.906056,10.0165789 L19.906056,10.2638842 L19.906056,10.5595053 L19.906056,11.2108737 C19.906056,13.5683263 18.570456,13.8857789 18.040896,13.9201368 L14.712696,13.9201368 L13.101336,13.9201368 L12.630096,13.9201368 L7.348896,13.9201368 L19.548936,34.0001789 L26.912736,34.0001789 L21.294936,24.7546842 L19.137816,21.1986421 Z" id="Fill-1" fill="#000000" sketch:type="MSShapeGroup" mask="url(#mask-2)"></path>
            </g>
        </g>
    </g>
</svg>