<svg width="180" height="36" viewBox="0 0 180 36" xmlns="http://www.w3.org/2000/svg"><title>connect</title><g fill="none" fill-rule="evenodd"><g transform="translate(153 8)" fill="#FFF"><path d="M12.33 6H19V0H0v6h6.67c.774-.625 1.758-1 2.83-1s2.056.375 2.83 1zM14 2h3v3h-3V2z"/><circle cx="9.5" cy="9.5" r="2.5"/><path d="M5.256 8H0v11h19V8h-5.256c.166.47.256.974.256 1.5 0 2.485-2.015 4.5-4.5 4.5S5 11.985 5 9.5c0-.526.09-1.03.256-1.5z"/></g><path d="M136 27h-4.072v-6.5c0-1.632-.59-2.745-2.063-2.745-1.128 0-1.796.752-2.09 1.477-.11.26-.135.62-.135.983V27h-4.072s.054-11.006 0-12.145h4.072v1.722c.54-.828 1.507-2.008 3.67-2.008 2.68 0 4.69 1.735 4.69 5.466V27zm-16.72-13.804h-.03c-1.365 0-2.25-.933-2.25-2.1 0-1.19.91-2.096 2.304-2.096 1.394 0 2.25.907 2.277 2.097 0 1.168-.882 2.1-2.3 2.1zM121.314 27h-4.074V14.855h4.075V27zM100.732 19.178c-.06-.846-.338-1.486-.84-1.925-.5-.44-1.12-.66-1.866-.66-.808 0-1.432.236-1.876.7-.447.46-.725 1.09-.84 1.885h5.422zm3.16-.317c.083.557.12 1.363.105 2.42h-8.76c.047 1.22.465 2.078 1.255 2.567.478.307 1.057.458 1.735.458.715 0 1.298-.184 1.746-.558.245-.2.46-.482.647-.837h3.21c-.084.724-.47 1.456-1.165 2.202-1.076 1.182-2.586 1.777-4.526 1.777-1.602 0-3.014-.502-4.24-1.5-1.222-1-1.834-2.625-1.834-4.878 0-2.112.55-3.73 1.655-4.854 1.11-1.128 2.543-1.69 4.306-1.69 1.046 0 1.99.19 2.83.57.84.382 1.53.98 2.077 1.803.494.727.812 1.565.96 2.52zM87.23 21.626c0-.883-.357-1.492-1.07-1.82-.397-.187-.96-.28-1.68-.29h-3.606v4.532h3.55c.73 0 1.295-.096 1.702-.298.735-.37 1.103-1.077 1.103-2.125zm-6.356-4.922h3.555c.73 0 1.32-.14 1.775-.423.456-.28.68-.778.68-1.494 0-.79-.3-1.316-.9-1.568-.518-.175-1.18-.267-1.983-.267h-3.128v3.753zm9.24 2.675c.437.685.656 1.515.656 2.49 0 1.01-.247 1.914-.747 2.713-.318.53-.714.977-1.188 1.336-.535.417-1.17.702-1.898.854-.73.153-1.52.23-2.37.23H77V10h8.114c2.045.034 3.495.633 4.35 1.81.514.723.77 1.59.77 2.597 0 1.04-.258 1.87-.777 2.502-.29.353-.715.676-1.28.967.855.317 1.504.815 1.938 1.5zm11.27-6.972h-6.767v-1.7h6.766v1.7z" fill="#FFF"/><path d="M62.99 13.93c-.087 1.916-1.45 4.535-4.076 7.86-2.72 3.474-5.022 5.21-6.905 5.21-1.165 0-2.152-1.056-2.96-3.177-.538-1.944-1.075-3.89-1.613-5.828-.6-2.12-1.24-3.18-1.928-3.18-.15 0-.672.31-1.57.927L43 14.55c.985-.852 1.957-1.707 2.914-2.56 1.314-1.12 2.3-1.706 2.96-1.767 1.55-.15 2.508.897 2.87 3.133.384 2.415.654 3.917.804 4.506.45 2 .94 3 1.48 3 .415 0 1.044-.646 1.882-1.94.836-1.296 1.283-2.282 1.344-2.96.12-1.12-.328-1.675-1.344-1.675-.48 0-.973.1-1.48.308.988-3.15 2.87-4.68 5.648-4.59 2.06.055 3.033 1.367 2.912 3.925" fill="#FEFEFE"/><path d="M14 14.97h1.93v-1.81c-.09-.97.128-1.946.62-2.79.705-.926 1.828-1.437 2.99-1.36 1.164-.048 2.328.066 3.46.34l-.48 2.76c-.51-.137-1.033-.214-1.56-.23-.75 0-1.42.26-1.42.98v2.11h3.08l-.22 2.69h-2.86v9.36h-3.61v-9.36H14v-2.69z" fill="#FFF"/></g></svg>