<svg width="156" height="50" viewBox="0 0 156 50" xmlns="http://www.w3.org/2000/svg"><title>logo</title><g fill="#000" fill-rule="evenodd"><path d="M147.605 9.594H124.45v5.988h8.565V42h6.026V15.582h8.565V9.594zM115.927 18.43l5.37-8.837h-7.042l-8.028 13.21h-5.457V9.592h-6.026V42h6.026V28.79h5.457L114.255 42h7.042l-5.37-8.836-2.066-3.398-2.41-3.97 2.41-3.967 2.067-3.4zM81.457 28.168h-7.572l3.785-12.2 3.787 12.2zM73.342 9.593L63.28 42h6.31l1.555-5.01.88-2.834H83.32l.878 2.835L85.753 42h6.307L82 9.592h-8.658zM38.295 9.594h-.753V42H60.7V36.012H43.57V28.79H60.7v-5.987H43.57V15.583H60.7V9.594H38.295zM27.298 29.766l-.588-.97h.22c4.322 0 7.134-2.845 7.134-7.14v-4.925c0-4.292-2.812-7.137-7.134-7.137H9V42h6.027V15.583H26.253c.503.03 1.786.334 1.786 2.587v2.05c0 2.253-1.283 2.557-1.786 2.586H16.028L27.694 42h7.04l-5.37-8.836-2.066-3.398z"/></g></svg>